<svg width="32" height="32" viewBox="0 0 32 32" fill="none" xmlns="http://www.w3.org/2000/svg">
<path d="M22.0374 14.9725L18.5349 13.465L17.7549 13.135C17.6349 13.075 17.5299 12.9175 17.5299 12.7825V10.4875C17.5299 9.76754 16.9974 8.91254 16.3524 8.58254C16.1274 8.47004 15.8574 8.47004 15.6324 8.58254C14.9949 8.91254 14.4624 9.77504 14.4624 10.495V12.79C14.4624 12.925 14.3574 13.0825 14.2374 13.1425L9.96242 14.98C9.48992 15.175 9.10742 15.7675 9.10742 16.2775V17.2675C9.10742 17.905 9.58742 18.22 10.1799 17.965L13.9374 16.345C14.2299 16.2175 14.4699 16.375 14.4699 16.6975V17.53V18.88C14.4699 19.0525 14.3724 19.3 14.2524 19.42L12.5124 21.1675C12.3324 21.3475 12.2499 21.7 12.3324 21.955L12.6699 22.975C12.8049 23.4175 13.3074 23.6275 13.7199 23.4175L15.5049 21.9175C15.7749 21.685 16.2174 21.685 16.4874 21.9175L18.2724 23.4175C18.6849 23.62 19.1874 23.4175 19.3374 22.975L19.6749 21.955C19.7574 21.7075 19.6749 21.3475 19.4949 21.1675L17.7549 19.42C17.6274 19.3 17.5299 19.0525 17.5299 18.88V16.6975C17.5299 16.375 17.7624 16.225 18.0624 16.345L21.8199 17.965C22.4124 18.22 22.8924 17.905 22.8924 17.2675V16.2775C22.8924 15.7675 22.5099 15.175 22.0374 14.9725Z" fill="url(#paint0_linear_361_11515)"/>
<defs>
<linearGradient id="paint0_linear_361_11515" x1="16.4328" y1="24.3493" x2="10.8677" y2="12.6592" gradientUnits="userSpaceOnUse">
<stop stop-color="#F68E1E"/>
<stop offset="1" stop-color="#FFC909"/>
</linearGradient>
</defs>
</svg>
