<svg width="194" height="51" viewBox="0 0 194 51" fill="none" xmlns="http://www.w3.org/2000/svg">
<rect width="194" height="51" rx="9.69182" fill="black"/>
<path d="M46.0274 25.2221C45.9877 20.8589 49.6378 18.7362 49.8047 18.6374C47.7375 15.655 44.5335 15.2475 43.4075 15.215C40.7165 14.9348 38.1062 16.8084 36.7353 16.8084C35.3372 16.8084 33.2262 15.2421 30.9511 15.2881C28.0233 15.3328 25.2844 17.0101 23.7823 19.6148C20.6822 24.9256 22.9942 32.7301 25.9644 37.0229C27.4501 39.1266 29.1862 41.4727 31.4586 41.3901C33.6818 41.3008 34.5122 39.989 37.195 39.989C39.8532 39.989 40.633 41.3901 42.9506 41.3373C45.3365 41.3008 46.8387 39.2255 48.2725 37.1041C49.9894 34.6958 50.6789 32.3212 50.7063 32.1994C50.6516 32.1805 46.0739 30.4503 46.0274 25.2221ZM41.6495 12.3911C42.8452 10.9114 43.6634 8.89836 43.4363 6.85553C41.7056 6.93134 39.5413 8.04008 38.295 9.48725C37.1923 10.7625 36.2073 12.8527 36.4617 14.8184C38.4058 14.9619 40.4018 13.8477 41.6495 12.3911Z" fill="white"/>
<path d="M78.2282 41.0883H75.1212L73.4193 35.7964H67.5037L65.8825 41.0883H62.8577L68.7199 23.0724H72.3399L78.2282 41.0883ZM72.9063 33.5762L71.3672 28.8719C71.2044 28.3913 70.8979 27.2596 70.4492 25.478H70.3945C70.2139 26.2442 69.9252 27.376 69.5298 28.8719L68.0167 33.5762H72.9063ZM93.2744 34.4332C93.2744 36.6425 92.6684 38.3889 91.4549 39.6709C90.3686 40.8121 89.0183 41.3821 87.4081 41.3821C85.6692 41.3821 84.4188 40.7688 83.6595 39.5396V46.3558H80.7427V32.3673C80.7427 30.9797 80.7058 29.5569 80.6346 28.0975H83.1998L83.3626 30.1566H83.4173C84.3901 28.6052 85.8662 27.8295 87.8472 27.8295C89.3959 27.8295 90.6888 28.4346 91.723 29.6462C92.7559 30.8606 93.2744 32.4553 93.2744 34.4332ZM90.303 34.5388C90.303 33.2743 90.0157 32.2319 89.4383 31.4102C88.8076 30.556 87.9608 30.1282 86.8991 30.1282C86.1795 30.1282 85.5256 30.3665 84.9414 30.8362C84.3559 31.31 83.9728 31.9287 83.7936 32.6949C83.7136 32.9815 83.6681 33.2764 83.6581 33.5735V35.7409C83.6581 36.6845 83.9509 37.4819 84.5364 38.1344C85.122 38.7842 85.8826 39.1104 86.8184 39.1104C87.917 39.1104 88.7721 38.6894 89.3836 37.8541C89.9965 37.0162 90.303 35.9115 90.303 34.5388ZM108.374 34.4332C108.374 36.6425 107.768 38.3889 106.555 39.6709C105.467 40.8121 104.118 41.3821 102.506 41.3821C100.767 41.3821 99.517 40.7688 98.7578 39.5396V46.3558H95.841V32.3673C95.841 30.9797 95.804 29.5569 95.7329 28.0975H98.2981L98.4609 30.1566H98.5156C99.487 28.6052 100.963 27.8295 102.945 27.8295C104.493 27.8295 105.786 28.4346 106.823 29.6462C107.854 30.8606 108.374 32.4553 108.374 34.4332ZM105.401 34.5388C105.401 33.2743 105.113 32.2319 104.535 31.4102C103.905 30.556 103.06 30.1282 101.999 30.1282C101.279 30.1282 100.625 30.3665 100.038 30.8362C99.4528 31.31 99.071 31.9287 98.8918 32.6949C98.8029 33.0523 98.755 33.3434 98.755 33.5735V35.7409C98.755 36.6845 99.0492 37.4819 99.632 38.1344C100.218 38.7828 100.978 39.1104 101.917 39.1104C103.017 39.1104 103.872 38.6894 104.482 37.8541C105.095 37.0162 105.401 35.9115 105.401 34.5388ZM125.256 36.0347C125.256 37.5685 124.715 38.8153 123.638 39.7778C122.453 40.8284 120.799 41.355 118.679 41.355C116.719 41.355 115.149 40.9813 113.964 40.2327L114.639 37.8271C115.918 38.5771 117.323 38.9507 118.852 38.9507C119.952 38.9507 120.807 38.7043 121.417 38.2156C122.029 37.7255 122.338 37.0703 122.338 36.2526C122.338 35.5202 122.082 34.907 121.58 34.4074C121.075 33.9093 120.241 33.4449 119.068 33.0185C115.881 31.8421 114.286 30.1214 114.286 27.8579C114.286 26.3796 114.849 25.1693 115.974 24.2231C117.098 23.2781 118.59 22.8057 120.445 22.8057C122.102 22.8057 123.482 23.0913 124.578 23.6612L123.846 26.0141C122.814 25.4618 121.65 25.1856 120.348 25.1856C119.319 25.1856 118.512 25.436 117.934 25.9342C117.449 26.3796 117.202 26.9225 117.202 27.5669C117.202 28.2776 117.483 28.8678 118.041 29.3308C118.525 29.7573 119.409 30.2216 120.687 30.7198C122.255 31.3452 123.407 32.0736 124.144 32.9102C124.887 33.7468 125.256 34.7906 125.256 36.0347ZM134.925 30.2636H131.71V36.5708C131.71 38.175 132.276 38.9751 133.412 38.9751C133.933 38.9751 134.365 38.9317 134.707 38.841L134.788 41.0328C134.213 41.2453 133.457 41.3523 132.52 41.3523C131.368 41.3523 130.467 41.0044 129.818 40.3085C129.17 39.6127 128.845 38.4471 128.845 36.8063V30.2582H126.929V28.0921H128.845V25.7136L131.71 24.858V28.0921H134.925V30.2636ZM149.402 34.486C149.402 36.4828 148.824 38.1222 147.673 39.4042C146.467 40.7241 144.864 41.3821 142.865 41.3821C140.936 41.3821 139.402 40.7498 138.259 39.4868C137.115 38.221 136.543 36.6263 136.543 34.7026C136.543 32.6895 137.134 31.0406 138.312 29.7586C139.493 28.4752 141.082 27.8336 143.081 27.8336C145.007 27.8336 146.555 28.4671 147.726 29.7315C148.845 30.958 149.402 32.542 149.402 34.486ZM146.378 34.5523C146.378 33.3623 146.118 32.3416 145.597 31.4874C144.986 30.4558 144.11 29.94 142.976 29.94C141.807 29.94 140.911 30.4558 140.301 31.4874C139.779 32.3416 139.519 33.3799 139.519 34.6065C139.519 35.7978 139.779 36.8212 140.301 37.6727C140.932 38.7043 141.812 39.2201 142.951 39.2201C144.066 39.2201 144.94 38.6935 145.572 37.647C146.109 36.7725 146.378 35.745 146.378 34.5523ZM158.887 30.6359C158.583 30.5817 158.276 30.5549 157.967 30.556C156.941 30.556 156.148 30.9377 155.59 31.7067C155.105 32.3836 154.862 33.2391 154.862 34.2721V41.0883H151.945V32.1886C151.948 30.8249 151.919 29.4613 151.86 28.0989H154.401L154.507 30.5844H154.588C154.897 29.7302 155.382 29.0411 156.047 28.5253C156.655 28.0746 157.395 27.8306 158.155 27.8295C158.424 27.8295 158.668 27.8484 158.884 27.8823L158.887 30.6359ZM171.932 33.9783C171.939 34.4171 171.903 34.8555 171.825 35.2874H163.074C163.107 36.5708 163.531 37.5536 164.344 38.2305C165.081 38.8343 166.035 39.1375 167.206 39.1375C168.502 39.1375 169.684 38.9344 170.747 38.5243L171.204 40.5265C169.961 41.0626 168.495 41.3293 166.803 41.3293C164.767 41.3293 163.169 40.7363 162.006 39.5531C160.846 38.3686 160.264 36.7765 160.264 34.7824C160.264 32.8249 160.805 31.1936 161.887 29.8926C163.02 28.5037 164.551 27.8092 166.477 27.8092C168.369 27.8092 169.801 28.5037 170.774 29.8926C171.544 30.9932 171.932 32.3578 171.932 33.9783ZM169.15 33.2297C169.171 32.3727 168.979 31.6349 168.584 31.0108C168.079 30.2067 167.302 29.806 166.261 29.806C165.307 29.806 164.53 30.1972 163.939 30.9824C163.453 31.6065 163.165 32.3565 163.076 33.227L169.15 33.2297Z" fill="white"/>
<path d="M66.6625 16.7028C65.8512 16.7028 65.1494 16.6635 64.5652 16.5972V7.88707C65.3822 7.76218 66.2079 7.70062 67.0346 7.70296C70.3796 7.70296 71.92 9.33154 71.92 11.9863C71.92 15.0485 70.1005 16.7028 66.6625 16.7028ZM67.1522 8.81981C66.7008 8.81981 66.3163 8.84689 65.9976 8.91187V15.5331C66.17 15.5602 66.501 15.5724 66.9662 15.5724C69.1579 15.5724 70.4056 14.3378 70.4056 12.0255C70.4056 9.96375 69.2769 8.81981 67.1522 8.81981ZM76.7207 16.7691C74.8354 16.7691 73.6137 15.3761 73.6137 13.4849C73.6137 11.5138 74.8614 10.1086 76.8274 10.1086C78.6853 10.1086 79.9343 11.4353 79.9343 13.3807C79.9343 15.3761 78.6469 16.7691 76.7207 16.7691ZM76.7754 11.1456C75.7398 11.1456 75.0762 12.1041 75.0762 13.4443C75.0762 14.7588 75.7534 15.7173 76.7617 15.7173C77.77 15.7173 78.4472 14.6925 78.4472 13.4172C78.4472 12.1176 77.7837 11.1456 76.7754 11.1456ZM90.6848 10.2399L88.6668 16.6243H87.3521L86.5162 13.8518C86.3084 13.1736 86.1353 12.4855 85.9977 11.79H85.9703C85.865 12.4858 85.6653 13.183 85.4532 13.8518L84.5639 16.6243H83.2355L81.3366 10.2399H82.81L83.5406 13.2751C83.713 13.998 83.858 14.6803 83.9784 15.3247H84.0058C84.1111 14.7872 84.2835 14.1158 84.5366 13.2886L85.4532 10.2413H86.6216L87.4985 13.2236C87.7106 13.9465 87.8829 14.6559 88.017 15.326H88.0553C88.1483 14.6694 88.2947 13.9723 88.4931 13.2236L89.277 10.2413L90.6848 10.2399ZM98.1135 16.6243H96.6798V12.9583C96.6798 11.8292 96.242 11.2634 95.3787 11.2634C94.5291 11.2634 93.9449 11.9863 93.9449 12.827V16.6243H92.5112V12.0648C92.5112 11.5003 92.4975 10.8951 92.4578 10.2386H93.7192L93.7863 11.2241H93.8259C94.2117 10.5418 94.9943 10.1086 95.8712 10.1086C97.2256 10.1086 98.1149 11.1334 98.1149 12.8012L98.1135 16.6243ZM102.067 16.6243H100.632V7.31036H102.067V16.6243ZM107.295 16.7691C105.411 16.7691 104.188 15.3761 104.188 13.4849C104.188 11.5138 105.436 10.1086 107.4 10.1086C109.259 10.1086 110.507 11.4353 110.507 13.3807C110.508 15.3761 109.22 16.7691 107.295 16.7691ZM107.348 11.1456C106.312 11.1456 105.649 12.1041 105.649 13.4443C105.649 14.7588 106.328 15.7173 107.333 15.7173C108.343 15.7173 109.019 14.6925 109.019 13.4172C109.02 12.1176 108.358 11.1456 107.348 11.1456ZM116.16 16.6243L116.056 15.8892H116.018C115.58 16.4808 114.941 16.7691 114.131 16.7691C112.975 16.7691 112.154 15.9677 112.154 14.8901C112.154 13.3143 113.535 12.4994 115.925 12.4994V12.3816C115.925 11.5409 115.475 11.1199 114.585 11.1199C113.949 11.1199 113.391 11.2783 112.9 11.5937L112.608 10.6609C113.205 10.2927 113.949 10.1086 114.823 10.1086C116.509 10.1086 117.36 10.9885 117.36 12.7498V15.1013C117.36 15.7457 117.389 16.2452 117.453 16.6256L116.16 16.6243ZM115.963 13.4443C114.371 13.4443 113.572 13.826 113.572 14.7317C113.572 15.4018 113.983 15.7294 114.555 15.7294C115.284 15.7294 115.963 15.1785 115.963 14.4298V13.4443ZM124.322 16.6243L124.255 15.5995H124.215C123.804 16.3738 123.111 16.7691 122.144 16.7691C120.589 16.7691 119.437 15.4154 119.437 13.5106C119.437 11.5138 120.631 10.1072 122.262 10.1072C123.125 10.1072 123.737 10.3956 124.081 10.975H124.11V7.31036H125.545V14.9036C125.545 15.521 125.56 16.099 125.598 16.6243H124.322ZM124.11 12.8676C124.11 11.9741 123.512 11.2119 122.6 11.2119C121.537 11.2119 120.887 12.1447 120.887 13.4578C120.887 14.7453 121.561 15.6266 122.571 15.6266C123.472 15.6266 124.11 14.8508 124.11 13.9316V12.8676ZM134.644 16.7691C132.76 16.7691 131.539 15.3761 131.539 13.4849C131.539 11.5138 132.786 10.1086 134.751 10.1086C136.61 10.1086 137.858 11.4353 137.858 13.3807C137.859 15.3761 136.572 16.7691 134.644 16.7691ZM134.698 11.1456C133.663 11.1456 133 12.1041 133 13.4443C133 14.7588 133.677 15.7173 134.684 15.7173C135.694 15.7173 136.369 14.6925 136.369 13.4172C136.372 12.1176 135.709 11.1456 134.698 11.1456ZM145.569 16.6243H144.133V12.9583C144.133 11.8292 143.696 11.2634 142.832 11.2634C141.983 11.2634 141.4 11.9863 141.4 12.827V16.6243H139.965V12.0648C139.965 11.5003 139.951 10.8951 139.911 10.2386H141.173L141.24 11.2241H141.28C141.664 10.5418 142.448 10.1072 143.323 10.1072C144.678 10.1072 145.569 11.132 145.569 12.7999V16.6243ZM155.215 11.304H153.638V14.4041C153.638 15.1934 153.914 15.5873 154.472 15.5873C154.725 15.5873 154.937 15.5602 155.108 15.521L155.148 16.5986C154.87 16.7042 154.498 16.757 154.036 16.757C152.906 16.757 152.23 16.1396 152.23 14.5232V11.304H151.288V10.2399H152.23V9.07026L153.638 8.64924V10.2386H155.215V11.304ZM162.805 16.6243H161.373V12.9854C161.373 11.8428 160.936 11.2647 160.072 11.2647C159.329 11.2647 158.637 11.7643 158.637 12.7755V16.6243H157.204V7.31036H158.637V11.1456H158.665C159.117 10.4497 159.771 10.1072 160.605 10.1072C161.971 10.1072 162.805 11.1578 162.805 12.827V16.6243ZM170.581 13.7732H166.279C166.306 14.9822 167.115 15.6645 168.312 15.6645C168.948 15.6645 169.533 15.5589 170.05 15.3626L170.273 16.3481C169.663 16.6107 168.945 16.7421 168.109 16.7421C166.091 16.7421 164.897 15.4803 164.897 13.5242C164.897 11.5666 166.12 10.0951 167.948 10.0951C169.596 10.0951 170.631 11.304 170.631 13.1302C170.64 13.3457 170.623 13.5616 170.581 13.7732ZM169.267 12.762C169.267 11.7764 168.764 11.0806 167.848 11.0806C167.024 11.0806 166.373 11.79 166.28 12.762H169.267Z" fill="white"/>
</svg>
