<svg width="32" height="32" viewBox="0 0 32 32" fill="none" xmlns="http://www.w3.org/2000/svg">
<path d="M19.5627 9.67V8.5C19.5627 8.1925 19.3077 7.9375 19.0002 7.9375C18.6927 7.9375 18.4377 8.1925 18.4377 8.5V9.625H13.5627V8.5C13.5627 8.1925 13.3077 7.9375 13.0002 7.9375C12.6927 7.9375 12.4377 8.1925 12.4377 8.5V9.67C10.4127 9.8575 9.43017 11.065 9.28017 12.8575C9.26517 13.075 9.44517 13.255 9.65517 13.255H22.3452C22.5627 13.255 22.7427 13.0675 22.7202 12.8575C22.5702 11.065 21.5877 9.8575 19.5627 9.67Z" fill="url(#paint0_linear_361_11532)"/>
<path d="M22 14.3799H10C9.5875 14.3799 9.25 14.7174 9.25 15.1299V19.7499C9.25 21.9999 10.375 23.4999 13 23.4999H19C21.625 23.4999 22.75 21.9999 22.75 19.7499V15.1299C22.75 14.7174 22.4125 14.3799 22 14.3799ZM13.9075 20.6574C13.87 20.6874 13.8325 20.7249 13.795 20.7474C13.75 20.7774 13.705 20.7999 13.66 20.8149C13.615 20.8374 13.57 20.8524 13.525 20.8599C13.4725 20.8674 13.4275 20.8749 13.375 20.8749C13.2775 20.8749 13.18 20.8524 13.09 20.8149C12.9925 20.7774 12.9175 20.7249 12.8425 20.6574C12.7075 20.5149 12.625 20.3199 12.625 20.1249C12.625 19.9299 12.7075 19.7349 12.8425 19.5924C12.9175 19.5249 12.9925 19.4724 13.09 19.4349C13.225 19.3749 13.375 19.3599 13.525 19.3899C13.57 19.3974 13.615 19.4124 13.66 19.4349C13.705 19.4499 13.75 19.4724 13.795 19.5024C13.8325 19.5324 13.87 19.5624 13.9075 19.5924C14.0425 19.7349 14.125 19.9299 14.125 20.1249C14.125 20.3199 14.0425 20.5149 13.9075 20.6574ZM13.9075 18.0324C13.765 18.1674 13.57 18.2499 13.375 18.2499C13.18 18.2499 12.985 18.1674 12.8425 18.0324C12.7075 17.8899 12.625 17.6949 12.625 17.4999C12.625 17.3049 12.7075 17.1099 12.8425 16.9674C13.0525 16.7574 13.3825 16.6899 13.66 16.8099C13.7575 16.8474 13.84 16.8999 13.9075 16.9674C14.0425 17.1099 14.125 17.3049 14.125 17.4999C14.125 17.6949 14.0425 17.8899 13.9075 18.0324ZM16.5325 20.6574C16.39 20.7924 16.195 20.8749 16 20.8749C15.805 20.8749 15.61 20.7924 15.4675 20.6574C15.3325 20.5149 15.25 20.3199 15.25 20.1249C15.25 19.9299 15.3325 19.7349 15.4675 19.5924C15.745 19.3149 16.255 19.3149 16.5325 19.5924C16.6675 19.7349 16.75 19.9299 16.75 20.1249C16.75 20.3199 16.6675 20.5149 16.5325 20.6574ZM16.5325 18.0324C16.495 18.0624 16.4575 18.0924 16.42 18.1224C16.375 18.1524 16.33 18.1749 16.285 18.1899C16.24 18.2124 16.195 18.2274 16.15 18.2349C16.0975 18.2424 16.0525 18.2499 16 18.2499C15.805 18.2499 15.61 18.1674 15.4675 18.0324C15.3325 17.8899 15.25 17.6949 15.25 17.4999C15.25 17.3049 15.3325 17.1099 15.4675 16.9674C15.535 16.8999 15.6175 16.8474 15.715 16.8099C15.9925 16.6899 16.3225 16.7574 16.5325 16.9674C16.6675 17.1099 16.75 17.3049 16.75 17.4999C16.75 17.6949 16.6675 17.8899 16.5325 18.0324ZM19.1575 20.6574C19.015 20.7924 18.82 20.8749 18.625 20.8749C18.43 20.8749 18.235 20.7924 18.0925 20.6574C17.9575 20.5149 17.875 20.3199 17.875 20.1249C17.875 19.9299 17.9575 19.7349 18.0925 19.5924C18.37 19.3149 18.88 19.3149 19.1575 19.5924C19.2925 19.7349 19.375 19.9299 19.375 20.1249C19.375 20.3199 19.2925 20.5149 19.1575 20.6574ZM19.1575 18.0324C19.12 18.0624 19.0825 18.0924 19.045 18.1224C19 18.1524 18.955 18.1749 18.91 18.1899C18.865 18.2124 18.82 18.2274 18.775 18.2349C18.7225 18.2424 18.67 18.2499 18.625 18.2499C18.43 18.2499 18.235 18.1674 18.0925 18.0324C17.9575 17.8899 17.875 17.6949 17.875 17.4999C17.875 17.3049 17.9575 17.1099 18.0925 16.9674C18.1675 16.8999 18.2425 16.8474 18.34 16.8099C18.475 16.7499 18.625 16.7349 18.775 16.7649C18.82 16.7724 18.865 16.7874 18.91 16.8099C18.955 16.8249 19 16.8474 19.045 16.8774C19.0825 16.9074 19.12 16.9374 19.1575 16.9674C19.2925 17.1099 19.375 17.3049 19.375 17.4999C19.375 17.6949 19.2925 17.8899 19.1575 18.0324Z" fill="url(#paint1_linear_361_11532)"/>
<defs>
<linearGradient id="paint0_linear_361_11532" x1="16.4228" y1="13.5562" x2="15.5689" y2="8.62112" gradientUnits="userSpaceOnUse">
<stop stop-color="#F68E1E"/>
<stop offset="1" stop-color="#FFC909"/>
</linearGradient>
<linearGradient id="paint1_linear_361_11532" x1="16.424" y1="24.0165" x2="14.0546" y2="15.9991" gradientUnits="userSpaceOnUse">
<stop stop-color="#F68E1E"/>
<stop offset="1" stop-color="#FFC909"/>
</linearGradient>
</defs>
</svg>
