<svg width="32" height="32" viewBox="0 0 32 32" fill="none" xmlns="http://www.w3.org/2000/svg">
<path d="M16 8.5C11.8675 8.5 8.5 11.8675 8.5 16C8.5 20.1325 11.8675 23.5 16 23.5C20.1325 23.5 23.5 20.1325 23.5 16C23.5 11.8675 20.1325 8.5 16 8.5ZM19.2625 18.6775C19.1575 18.8575 18.97 18.955 18.775 18.955C18.6775 18.955 18.58 18.9325 18.49 18.8725L16.165 17.485C15.5875 17.14 15.16 16.3825 15.16 15.715V12.64C15.16 12.3325 15.415 12.0775 15.7225 12.0775C16.03 12.0775 16.285 12.3325 16.285 12.64V15.715C16.285 15.985 16.51 16.3825 16.7425 16.5175L19.0675 17.905C19.3375 18.0625 19.4275 18.4075 19.2625 18.6775Z" fill="url(#paint0_linear_361_11523)"/>
<defs>
<linearGradient id="paint0_linear_361_11523" x1="16.4711" y1="24.3498" x2="11.2063" y2="12.3147" gradientUnits="userSpaceOnUse">
<stop stop-color="#F68E1E"/>
<stop offset="1" stop-color="#FFC909"/>
</linearGradient>
</defs>
</svg>
