<svg width="25" height="24" viewBox="0 0 25 24" fill="none" xmlns="http://www.w3.org/2000/svg">
<g id="Icon">
<path id="Vector" fill-rule="evenodd" clip-rule="evenodd" d="M6.92417 5.57564C6.68985 5.34132 6.30995 5.34132 6.07564 5.57564C5.84132 5.80995 5.84132 6.18985 6.07564 6.42417L11.6514 11.9999L6.07564 17.5756C5.84132 17.81 5.84132 18.1899 6.07564 18.4242C6.30995 18.6585 6.68985 18.6585 6.92417 18.4242L12.4999 12.8484L18.0756 18.4242C18.31 18.6585 18.6899 18.6585 18.9242 18.4242C19.1585 18.1899 19.1585 17.81 18.9242 17.5756L13.3484 11.9999L18.9242 6.42417C19.1585 6.18985 19.1585 5.80995 18.9242 5.57564C18.6899 5.34132 18.31 5.34132 18.0756 5.57564L12.4999 11.1514L6.92417 5.57564Z" fill="#141415"/>
</g>
</svg>
