<svg width="60" height="60" viewBox="0 0 60 60" fill="none" xmlns="http://www.w3.org/2000/svg">
<rect width="60" height="60" rx="30" fill="#FEF9E1"/>
<path d="M34.7502 19.56V18C34.7502 17.59 34.4102 17.25 34.0002 17.25C33.5902 17.25 33.2502 17.59 33.2502 18V19.5H26.7502V18C26.7502 17.59 26.4102 17.25 26.0002 17.25C25.5902 17.25 25.2502 17.59 25.2502 18V19.56C22.5502 19.81 21.2402 21.42 21.0402 23.81C21.0202 24.1 21.2602 24.34 21.5402 24.34L38.4602 24.34C38.7502 24.34 38.9902 24.09 38.9602 23.81C38.7602 21.42 37.4502 19.81 34.7502 19.56Z" fill="url(#paint0_linear_3850_3997)"/>
<path d="M38 25.84L22 25.84C21.45 25.84 21 26.29 21 26.84V33C21 36 22.5 38 26 38H34C37.5 38 39 36 39 33V26.84C39 26.29 38.55 25.84 38 25.84ZM27.21 34.21C27.16 34.25 27.11 34.3 27.06 34.33C27 34.37 26.94 34.4 26.88 34.42C26.82 34.45 26.76 34.47 26.7 34.48C26.63 34.49 26.57 34.5 26.5 34.5C26.37 34.5 26.24 34.47 26.12 34.42C25.99 34.37 25.89 34.3 25.79 34.21C25.61 34.02 25.5 33.76 25.5 33.5C25.5 33.24 25.61 32.98 25.79 32.79C25.89 32.7 25.99 32.63 26.12 32.58C26.3 32.5 26.5 32.48 26.7 32.52C26.76 32.53 26.82 32.55 26.88 32.58C26.94 32.6 27 32.63 27.06 32.67C27.11 32.71 27.16 32.75 27.21 32.79C27.39 32.98 27.5 33.24 27.5 33.5C27.5 33.76 27.39 34.02 27.21 34.21ZM27.21 30.71C27.02 30.89 26.76 31 26.5 31C26.24 31 25.98 30.89 25.79 30.71C25.61 30.52 25.5 30.26 25.5 30C25.5 29.74 25.61 29.48 25.79 29.29C26.07 29.01 26.51 28.92 26.88 29.08C27.01 29.13 27.12 29.2 27.21 29.29C27.39 29.48 27.5 29.74 27.5 30C27.5 30.26 27.39 30.52 27.21 30.71ZM30.71 34.21C30.52 34.39 30.26 34.5 30 34.5C29.74 34.5 29.48 34.39 29.29 34.21C29.11 34.02 29 33.76 29 33.5C29 33.24 29.11 32.98 29.29 32.79C29.66 32.42 30.34 32.42 30.71 32.79C30.89 32.98 31 33.24 31 33.5C31 33.76 30.89 34.02 30.71 34.21ZM30.71 30.71C30.66 30.75 30.61 30.79 30.56 30.83C30.5 30.87 30.44 30.9 30.38 30.92C30.32 30.95 30.26 30.97 30.2 30.98C30.13 30.99 30.07 31 30 31C29.74 31 29.48 30.89 29.29 30.71C29.11 30.52 29 30.26 29 30C29 29.74 29.11 29.48 29.29 29.29C29.38 29.2 29.49 29.13 29.62 29.08C29.99 28.92 30.43 29.01 30.71 29.29C30.89 29.48 31 29.74 31 30C31 30.26 30.89 30.52 30.71 30.71ZM34.21 34.21C34.02 34.39 33.76 34.5 33.5 34.5C33.24 34.5 32.98 34.39 32.79 34.21C32.61 34.02 32.5 33.76 32.5 33.5C32.5 33.24 32.61 32.98 32.79 32.79C33.16 32.42 33.84 32.42 34.21 32.79C34.39 32.98 34.5 33.24 34.5 33.5C34.5 33.76 34.39 34.02 34.21 34.21ZM34.21 30.71C34.16 30.75 34.11 30.79 34.06 30.83C34 30.87 33.94 30.9 33.88 30.92C33.82 30.95 33.76 30.97 33.7 30.98C33.63 30.99 33.56 31 33.5 31C33.24 31 32.98 30.89 32.79 30.71C32.61 30.52 32.5 30.26 32.5 30C32.5 29.74 32.61 29.48 32.79 29.29C32.89 29.2 32.99 29.13 33.12 29.08C33.3 29 33.5 28.98 33.7 29.02C33.76 29.03 33.82 29.05 33.88 29.08C33.94 29.1 34 29.13 34.06 29.17C34.11 29.21 34.16 29.25 34.21 29.29C34.39 29.48 34.5 29.74 34.5 30C34.5 30.26 34.39 30.52 34.21 30.71Z" fill="url(#paint1_linear_3850_3997)"/>
<defs>
<linearGradient id="paint0_linear_3850_3997" x1="30.5638" y1="24.7417" x2="29.4252" y2="18.1615" gradientUnits="userSpaceOnUse">
<stop stop-color="#F68E1E"/>
<stop offset="1" stop-color="#FFC909"/>
</linearGradient>
<linearGradient id="paint1_linear_3850_3997" x1="30.5653" y1="38.6888" x2="27.4062" y2="27.9989" gradientUnits="userSpaceOnUse">
<stop stop-color="#F68E1E"/>
<stop offset="1" stop-color="#FFC909"/>
</linearGradient>
</defs>
</svg>
