<svg width="60" height="60" viewBox="0 0 60 60" fill="none" xmlns="http://www.w3.org/2000/svg">
<rect width="60" height="60" rx="30" fill="#FEF9E1"/>
<path d="M29.25 18L29.25 20.04C25.44 20.4 22.39 23.44 22.04 27.25L20 27.25C19.59 27.25 19.25 27.59 19.25 28C19.25 28.41 19.59 28.75 20 28.75L22.04 28.75C22.4 32.56 25.44 35.61 29.25 35.96L29.25 38C29.25 38.41 29.59 38.75 30 38.75C30.41 38.75 30.75 38.41 30.75 38L30.75 35.96C34.56 35.6 37.61 32.56 37.96 28.75L40 28.75C40.41 28.75 40.75 28.41 40.75 28C40.75 27.59 40.41 27.25 40 27.25L37.96 27.25C37.6 23.44 34.56 20.39 30.75 20.04L30.75 18C30.75 17.59 30.41 17.25 30 17.25C29.59 17.25 29.25 17.59 29.25 18ZM33.12 28C33.12 29.72 31.72 31.12 30 31.12C28.28 31.12 26.88 29.72 26.88 28C26.88 26.28 28.28 24.88 30 24.88C31.72 24.88 33.12 26.28 33.12 28Z" fill="url(#paint0_linear_3850_8002)"/>
<defs>
<linearGradient id="paint0_linear_3850_8002" x1="41.968" y1="27.3248" x2="24.7177" y2="34.871" gradientUnits="userSpaceOnUse">
<stop stop-color="#F68E1E"/>
<stop offset="1" stop-color="#FFC909"/>
</linearGradient>
</defs>
</svg>
