<svg width="49" height="55" viewBox="0 0 49 55" fill="none" xmlns="http://www.w3.org/2000/svg">
<path d="M0 4C0 1.79086 1.79086 0 4 0H49V55H4C1.79086 55 0 53.2091 0 51V4Z" fill="#FCBA13"/>
<path d="M35.4561 24.4513C35.4561 24.4513 45.959 36.292 30.8027 45C30.8027 45 32.6652 42.0053 30.9217 37.9544C30.9217 37.9544 30.398 43.7097 26.9645 41.8853C24.1201 40.3789 29.2377 35.2538 24.5009 31.785C24.5009 31.785 26.4409 37.1262 21.96 38.6565C16.8662 40.3909 20.0498 45 20.0498 45C20.0498 45 6.08958 41.4772 11.0762 25.0394C11.0762 25.0394 11.6237 30.8608 16.5508 31.0288C16.5508 31.0288 19.8118 31.2208 18.705 28.1001C17.5982 24.9794 13.4684 23.335 15.6761 17.2317C15.6761 17.2317 14.9323 23.8632 22.0195 21.8707C27.4882 20.3344 25.8458 11.7524 23.293 10C23.293 10 31.0526 10.6662 31.1359 17.2917C31.1954 22.3028 27.7262 26.8819 30.4576 28.5622C33.8911 30.6747 35.9857 27.9381 35.4621 24.4513H35.4561Z" fill="white"/>
</svg>
