<svg width="45" height="109" viewBox="0 0 45 109" fill="none" xmlns="http://www.w3.org/2000/svg">
<mask id="mask0_47_294" style="mask-type:luminance" maskUnits="userSpaceOnUse" x="21" y="98" width="3" height="11">
<path d="M23.8054 98.5096H23.6271V98.7533H23.5332V98.5096H23.3549V98.7533H23.2611V98.5096H23.0922V98.7533H22.9983V98.5096H22.82V98.7533H22.7262V98.5096H22.5479V98.7533H22.4634V98.5096H22.2851V98.7533H22.1912V98.5096H22.0129V98.7533H21.9191V98.5096H21.7502V98.7533H21.6563V98.5096H21.478V107.993H21.6094V108.274H21.7877V108.049H21.8816V108.237H22.0599V108.105H22.1537V108.171H22.3226V108.134H22.4165V108.171H22.5948V108.134H22.6886V108.171H22.8575V108.134H22.9514V108.171H23.1297V108.105H23.2235V108.237H23.4018V108.049H23.4957V108.274H23.6646V107.993H23.8054V98.5096Z" fill="white"/>
</mask>
<g mask="url(#mask0_47_294)">
<path d="M21.7872 98.7531H21.6089V108.274H21.7872V98.7531Z" fill="url(#paint0_linear_47_294)"/>
<path d="M22.0597 98.7531H21.8813V108.236H22.0597V98.7531Z" fill="url(#paint1_linear_47_294)"/>
<path d="M22.3316 98.7531H22.1533V108.171H22.3316V98.7531Z" fill="url(#paint2_linear_47_294)"/>
<path d="M22.5943 98.7531H22.416V108.171H22.5943V98.7531Z" fill="url(#paint3_linear_47_294)"/>
<path d="M22.8663 98.7531H22.688V108.171H22.8663V98.7531Z" fill="url(#paint4_linear_47_294)"/>
<path d="M23.129 98.7531H22.9507V108.171H23.129V98.7531Z" fill="url(#paint5_linear_47_294)"/>
<path d="M23.4014 98.7531H23.2231V108.236H23.4014V98.7531Z" fill="url(#paint6_linear_47_294)"/>
<path d="M23.6734 98.7531H23.4951V108.274H23.6734V98.7531Z" fill="url(#paint7_linear_47_294)"/>
<path d="M21.6563 98.5096H21.478V107.993H21.6563V98.5096Z" fill="url(#paint8_linear_47_294)"/>
<path d="M21.9288 98.5096H21.7505V108.049H21.9288V98.5096Z" fill="url(#paint9_linear_47_294)"/>
<path d="M22.191 98.5096H22.0127V108.105H22.191V98.5096Z" fill="url(#paint10_linear_47_294)"/>
<path d="M22.4635 98.5096H22.2852V108.134H22.4635V98.5096Z" fill="url(#paint11_linear_47_294)"/>
<path d="M22.7262 98.5096H22.5479V108.134H22.7262V98.5096Z" fill="url(#paint12_linear_47_294)"/>
<path d="M22.9981 98.5096H22.8198V108.134H22.9981V98.5096Z" fill="url(#paint13_linear_47_294)"/>
<path d="M23.2701 98.5096H23.0918V108.105H23.2701V98.5096Z" fill="url(#paint14_linear_47_294)"/>
<path d="M23.5333 98.5096H23.355V108.049H23.5333V98.5096Z" fill="url(#paint15_linear_47_294)"/>
<path d="M23.8053 98.5096H23.627V107.993H23.8053V98.5096Z" fill="url(#paint16_linear_47_294)"/>
<path style="mix-blend-mode:overlay" d="M23.8054 98.5096H23.6271V98.7533H23.5332V98.5096H23.3549V98.7533H23.2611V98.5096H23.0922V98.7533H22.9983V98.5096H22.82V98.7533H22.7262V98.5096H22.5479V98.7533H22.4634V98.5096H22.2851V98.7533H22.1912V98.5096H22.0129V98.7533H21.9191V98.5096H21.7502V98.7533H21.6563V98.5096H21.478V107.993H21.6094V108.274H21.7877V108.049H21.8816V108.237H22.0599V108.105H22.1537V108.171H22.3226V108.134H22.4165V108.171H22.5948V108.134H22.6886V108.171H22.8575V108.134H22.9514V108.171H23.1297V108.105H23.2235V108.237H23.4018V108.049H23.4957V108.274H23.6646V107.993H23.8054V98.5096Z" fill="url(#paint17_linear_47_294)"/>
</g>
<path style="mix-blend-mode:multiply" d="M23.8239 94.63H21.459V96.9915H23.8239V94.63Z" fill="url(#paint18_linear_47_294)"/>
<path d="M22.6415 81.3794C34.5881 81.3794 44.2727 74.8638 44.2727 66.8264C44.2727 58.789 34.5881 52.2734 22.6415 52.2734C10.6949 52.2734 1.01025 58.789 1.01025 66.8264C1.01025 74.8638 10.6949 81.3794 22.6415 81.3794Z" fill="url(#paint19_linear_47_294)"/>
<path d="M44.526 66.8264C44.526 58.7393 34.8881 52.1516 22.9792 52.0298V0.761719H22.3129V52.0298C10.404 52.1516 0.766113 58.7393 0.766113 66.8264C0.766113 74.9135 10.4227 81.5106 22.3504 81.623V90.5816C21.2618 90.7315 20.4172 91.6592 20.4172 92.7837C20.4172 93.5803 20.8395 94.2737 21.4683 94.6673V98.5187C21.4683 98.6499 21.5715 98.753 21.7029 98.753H23.5986C23.7299 98.753 23.8332 98.6499 23.8332 98.5187V94.6673C24.4619 94.2737 24.8842 93.5803 24.8842 92.7837C24.8842 91.6499 24.0396 90.7222 22.951 90.5816V81.623C34.8787 81.5106 44.5353 74.9229 44.5353 66.8264H44.526ZM44.0286 66.8264C44.0286 73.5641 37.0278 79.2241 27.6433 80.7328C33.2364 78.6618 37.2436 73.208 37.2436 66.8264C37.2436 60.4448 33.2364 55.0004 27.6433 52.92C37.0278 54.4287 44.0286 60.0888 44.0286 66.8264ZM36.7462 66.8264C36.7462 73.9951 31.5191 79.9456 24.7247 80.9671C27.6245 79.1023 29.736 73.4704 29.736 66.8264C29.736 60.1825 27.6245 54.5412 24.7247 52.6858C31.5191 53.7072 36.7462 59.6671 36.7462 66.8264ZM1.25411 66.8264C1.25411 60.0888 8.25493 54.4287 17.6394 52.92C12.0463 54.991 8.03909 60.4448 8.03909 66.8264C8.03909 73.208 12.0463 78.6525 17.6394 80.7328C8.25493 79.2241 1.25411 73.5641 1.25411 66.8264ZM8.53647 66.8264C8.53647 59.6577 13.7636 53.7072 20.558 52.6858C17.6582 54.5506 15.5467 60.1825 15.5467 66.8264C15.5467 73.4704 17.6582 79.1116 20.558 80.9671C13.7636 79.9456 8.53647 73.9858 8.53647 66.8264ZM22.6413 81.1264C19.0002 81.1264 16.0441 74.7073 16.0441 66.8264C16.0441 58.9455 19.0002 52.5265 22.6413 52.5265C26.2825 52.5265 29.2386 58.9455 29.2386 66.8264C29.2386 74.7073 26.2825 81.1264 22.6413 81.1264Z" fill="#FDD949"/>
<defs>
<linearGradient id="paint0_linear_47_294" x1="21.6089" y1="103.513" x2="21.7872" y2="103.513" gradientUnits="userSpaceOnUse">
<stop stop-color="#AB0000"/>
<stop offset="0.5" stop-color="#C22F32"/>
<stop offset="0.7" stop-color="#C02628"/>
<stop offset="1" stop-color="#BD1111"/>
</linearGradient>
<linearGradient id="paint1_linear_47_294" x1="21.8813" y1="103.495" x2="22.0597" y2="103.495" gradientUnits="userSpaceOnUse">
<stop stop-color="#AB0000"/>
<stop offset="0.5" stop-color="#C22F32"/>
<stop offset="0.7" stop-color="#C02628"/>
<stop offset="1" stop-color="#BD1111"/>
</linearGradient>
<linearGradient id="paint2_linear_47_294" x1="22.1533" y1="103.457" x2="22.3222" y2="103.457" gradientUnits="userSpaceOnUse">
<stop stop-color="#AB0000"/>
<stop offset="0.5" stop-color="#C22F32"/>
<stop offset="0.7" stop-color="#C02628"/>
<stop offset="1" stop-color="#BD1111"/>
</linearGradient>
<linearGradient id="paint3_linear_47_294" x1="22.416" y1="103.457" x2="22.5943" y2="103.457" gradientUnits="userSpaceOnUse">
<stop stop-color="#AB0000"/>
<stop offset="0.5" stop-color="#C22F32"/>
<stop offset="0.7" stop-color="#C02628"/>
<stop offset="1" stop-color="#BD1111"/>
</linearGradient>
<linearGradient id="paint4_linear_47_294" x1="22.688" y1="103.457" x2="22.8569" y2="103.457" gradientUnits="userSpaceOnUse">
<stop stop-color="#AB0000"/>
<stop offset="0.5" stop-color="#C22F32"/>
<stop offset="0.7" stop-color="#C02628"/>
<stop offset="1" stop-color="#BD1111"/>
</linearGradient>
<linearGradient id="paint5_linear_47_294" x1="22.9507" y1="103.457" x2="23.129" y2="103.457" gradientUnits="userSpaceOnUse">
<stop stop-color="#AB0000"/>
<stop offset="0.5" stop-color="#C22F32"/>
<stop offset="0.7" stop-color="#C02628"/>
<stop offset="1" stop-color="#BD1111"/>
</linearGradient>
<linearGradient id="paint6_linear_47_294" x1="23.2231" y1="103.495" x2="23.4014" y2="103.495" gradientUnits="userSpaceOnUse">
<stop stop-color="#AB0000"/>
<stop offset="0.5" stop-color="#C22F32"/>
<stop offset="0.7" stop-color="#C02628"/>
<stop offset="1" stop-color="#BD1111"/>
</linearGradient>
<linearGradient id="paint7_linear_47_294" x1="23.4951" y1="0.761726" x2="23.664" y2="0.761726" gradientUnits="userSpaceOnUse">
<stop stop-color="#AB0000"/>
<stop offset="0.5" stop-color="#C22F32"/>
<stop offset="0.7" stop-color="#C02628"/>
<stop offset="1" stop-color="#BD1111"/>
</linearGradient>
<linearGradient id="paint8_linear_47_294" x1="21.478" y1="103.251" x2="21.6563" y2="103.251" gradientUnits="userSpaceOnUse">
<stop stop-color="#D61313"/>
<stop offset="0.5" stop-color="#E0363A"/>
<stop offset="0.68" stop-color="#DD2D30"/>
<stop offset="0.97" stop-color="#D61515"/>
<stop offset="1" stop-color="#D61313"/>
</linearGradient>
<linearGradient id="paint9_linear_47_294" x1="21.7505" y1="103.279" x2="21.9194" y2="103.279" gradientUnits="userSpaceOnUse">
<stop stop-color="#D61313"/>
<stop offset="0.5" stop-color="#E0363A"/>
<stop offset="0.68" stop-color="#DD2D30"/>
<stop offset="0.97" stop-color="#D61515"/>
<stop offset="1" stop-color="#D61313"/>
</linearGradient>
<linearGradient id="paint10_linear_47_294" x1="22.0127" y1="103.308" x2="22.191" y2="103.308" gradientUnits="userSpaceOnUse">
<stop stop-color="#D61313"/>
<stop offset="0.5" stop-color="#E0363A"/>
<stop offset="0.68" stop-color="#DD2D30"/>
<stop offset="0.97" stop-color="#D61515"/>
<stop offset="1" stop-color="#D61313"/>
</linearGradient>
<linearGradient id="paint11_linear_47_294" x1="22.2852" y1="103.326" x2="22.4635" y2="103.326" gradientUnits="userSpaceOnUse">
<stop stop-color="#D61313"/>
<stop offset="0.5" stop-color="#E0363A"/>
<stop offset="0.68" stop-color="#DD2D30"/>
<stop offset="0.97" stop-color="#D61515"/>
<stop offset="1" stop-color="#D61313"/>
</linearGradient>
<linearGradient id="paint12_linear_47_294" x1="22.5479" y1="103.326" x2="22.7262" y2="103.326" gradientUnits="userSpaceOnUse">
<stop stop-color="#D61313"/>
<stop offset="0.5" stop-color="#E0363A"/>
<stop offset="0.68" stop-color="#DD2D30"/>
<stop offset="0.97" stop-color="#D61515"/>
<stop offset="1" stop-color="#D61313"/>
</linearGradient>
<linearGradient id="paint13_linear_47_294" x1="22.8198" y1="103.326" x2="22.9981" y2="103.326" gradientUnits="userSpaceOnUse">
<stop stop-color="#D61313"/>
<stop offset="0.5" stop-color="#E0363A"/>
<stop offset="0.68" stop-color="#DD2D30"/>
<stop offset="0.97" stop-color="#D61515"/>
<stop offset="1" stop-color="#D61313"/>
</linearGradient>
<linearGradient id="paint14_linear_47_294" x1="23.0918" y1="103.308" x2="23.2607" y2="103.308" gradientUnits="userSpaceOnUse">
<stop stop-color="#D61313"/>
<stop offset="0.5" stop-color="#E0363A"/>
<stop offset="0.68" stop-color="#DD2D30"/>
<stop offset="0.97" stop-color="#D61515"/>
<stop offset="1" stop-color="#D61313"/>
</linearGradient>
<linearGradient id="paint15_linear_47_294" x1="23.355" y1="103.279" x2="23.5333" y2="103.279" gradientUnits="userSpaceOnUse">
<stop stop-color="#D61313"/>
<stop offset="0.5" stop-color="#E0363A"/>
<stop offset="0.68" stop-color="#DD2D30"/>
<stop offset="0.97" stop-color="#D61515"/>
<stop offset="1" stop-color="#D61313"/>
</linearGradient>
<linearGradient id="paint16_linear_47_294" x1="23.627" y1="0.761971" x2="23.8053" y2="0.761971" gradientUnits="userSpaceOnUse">
<stop stop-color="#D61313"/>
<stop offset="0.5" stop-color="#E0363A"/>
<stop offset="0.68" stop-color="#DD2D30"/>
<stop offset="0.97" stop-color="#D61515"/>
<stop offset="1" stop-color="#D61313"/>
</linearGradient>
<linearGradient id="paint17_linear_47_294" x1="21.478" y1="103.392" x2="23.8054" y2="103.392" gradientUnits="userSpaceOnUse">
<stop/>
<stop offset="0.42" stop-color="#D3D3D3"/>
<stop offset="0.5" stop-color="white"/>
<stop offset="0.54" stop-color="#F5F5F5"/>
<stop offset="0.61" stop-color="#DADADA"/>
<stop offset="0.71" stop-color="#AFAFAF"/>
<stop offset="0.82" stop-color="#737373"/>
<stop offset="0.94" stop-color="#282828"/>
<stop offset="1"/>
</linearGradient>
<linearGradient id="paint18_linear_47_294" x1="22.6414" y1="96.9821" x2="22.6414" y2="94.63" gradientUnits="userSpaceOnUse">
<stop stop-color="white"/>
<stop offset="1" stop-color="#D3A358"/>
</linearGradient>
<linearGradient id="paint19_linear_47_294" x1="24.0001" y1="83.0282" x2="16.4647" y2="57.4242" gradientUnits="userSpaceOnUse">
<stop stop-color="#BB2C26"/>
<stop offset="1" stop-color="#FF160D"/>
</linearGradient>
</defs>
</svg>
