<svg width="60" height="146" viewBox="0 0 60 146" fill="none" xmlns="http://www.w3.org/2000/svg">
<mask id="mask0_47_327" style="mask-type:luminance" maskUnits="userSpaceOnUse" x="28" y="132" width="4" height="14">
<path d="M31.6829 132.471H31.4417V132.801H31.3147V132.471H31.0735V132.801H30.9465V132.471H30.718V132.801H30.591V132.471H30.3498V132.801H30.2228V132.471H29.9816V132.801H29.8673V132.471H29.6261V132.801H29.4991V132.471H29.2579V132.801H29.1309V132.471H28.9024V132.801H28.7754V132.471H28.5342V145.302H28.7119V145.682H28.9532V145.378H29.0801V145.631H29.3214V145.454H29.4483V145.543H29.6769V145.492H29.8038V145.543H30.0451V145.492H30.172V145.543H30.4006V145.492H30.5276V145.543H30.7688V145.454H30.8958V145.631H31.137V145.378H31.264V145.682H31.4925V145.302H31.6829V132.471Z" fill="white"/>
</mask>
<g mask="url(#mask0_47_327)">
<path d="M28.9527 132.801H28.7114V145.682H28.9527V132.801Z" fill="url(#paint0_linear_47_327)"/>
<path d="M29.3213 132.801H29.0801V145.631H29.3213V132.801Z" fill="url(#paint1_linear_47_327)"/>
<path d="M29.6895 132.801H29.4482V145.542H29.6895V132.801Z" fill="url(#paint2_linear_47_327)"/>
<path d="M30.0445 132.801H29.8032V145.542H30.0445V132.801Z" fill="url(#paint3_linear_47_327)"/>
<path d="M30.4131 132.801H30.1719V145.542H30.4131V132.801Z" fill="url(#paint4_linear_47_327)"/>
<path d="M30.7681 132.801H30.5269V145.542H30.7681V132.801Z" fill="url(#paint5_linear_47_327)"/>
<path d="M31.1367 132.801H30.8955V145.631H31.1367V132.801Z" fill="url(#paint6_linear_47_327)"/>
<path d="M31.5044 132.801H31.2632V145.682H31.5044V132.801Z" fill="url(#paint7_linear_47_327)"/>
<path d="M28.7754 132.471H28.5342V145.302H28.7754V132.471Z" fill="url(#paint8_linear_47_327)"/>
<path d="M29.1436 132.471H28.9023V145.378H29.1436V132.471Z" fill="url(#paint9_linear_47_327)"/>
<path d="M29.499 132.471H29.2578V145.454H29.499V132.471Z" fill="url(#paint10_linear_47_327)"/>
<path d="M29.8672 132.471H29.626V145.492H29.8672V132.471Z" fill="url(#paint11_linear_47_327)"/>
<path d="M30.2227 132.471H29.9814V145.492H30.2227V132.471Z" fill="url(#paint12_linear_47_327)"/>
<path d="M30.5908 132.471H30.3496V145.492H30.5908V132.471Z" fill="url(#paint13_linear_47_327)"/>
<path d="M30.959 132.471H30.7178V145.454H30.959V132.471Z" fill="url(#paint14_linear_47_327)"/>
<path d="M31.3145 132.471H31.0732V145.378H31.3145V132.471Z" fill="url(#paint15_linear_47_327)"/>
<path d="M31.6831 132.471H31.4419V145.302H31.6831V132.471Z" fill="url(#paint16_linear_47_327)"/>
<path style="mix-blend-mode:overlay" d="M31.6829 132.471H31.4417V132.801H31.3147V132.471H31.0735V132.801H30.9465V132.471H30.718V132.801H30.591V132.471H30.3498V132.801H30.2228V132.471H29.9816V132.801H29.8673V132.471H29.6261V132.801H29.4991V132.471H29.2579V132.801H29.1309V132.471H28.9024V132.801H28.7754V132.471H28.5342V145.302H28.7119V145.682H28.9532V145.378H29.0801V145.631H29.3214V145.454H29.4483V145.543H29.6769V145.492H29.8038V145.543H30.0451V145.492H30.172V145.543H30.4006V145.492H30.5276V145.543H30.7688V145.454H30.8958V145.631H31.137V145.378H31.264V145.682H31.4925V145.302H31.6829V132.471Z" fill="url(#paint17_linear_47_327)"/>
</g>
<path style="mix-blend-mode:multiply" d="M31.7083 127.223H28.5088V130.418H31.7083V127.223Z" fill="url(#paint18_linear_47_327)"/>
<path d="M30.109 109.296C46.2721 109.296 59.3748 100.48 59.3748 89.6062C59.3748 78.7321 46.2721 69.9169 30.109 69.9169C13.946 69.9169 0.843262 78.7321 0.843262 89.6062C0.843262 100.48 13.946 109.296 30.109 109.296Z" fill="url(#paint19_linear_47_327)"/>
<path d="M59.7172 89.6064C59.7172 78.6651 46.6777 69.7523 30.5657 69.5874V0.224731H29.6642V69.5874C13.5522 69.7523 0.512695 78.6651 0.512695 89.6064C0.512695 100.548 13.5776 109.473 29.715 109.625V121.746C28.2422 121.949 27.0995 123.204 27.0995 124.725C27.0995 125.803 27.6708 126.741 28.5215 127.273V132.484C28.5215 132.662 28.6612 132.801 28.8389 132.801H31.4037C31.5814 132.801 31.7211 132.662 31.7211 132.484V127.273C32.5717 126.741 33.1431 125.803 33.1431 124.725C33.1431 123.191 32.0004 121.936 30.5276 121.746V109.625C46.665 109.473 59.7299 100.56 59.7299 89.6064H59.7172ZM59.0443 89.6064C59.0443 98.722 49.5726 106.38 36.8759 108.421C44.4431 105.619 49.8646 98.2403 49.8646 89.6064C49.8646 80.9725 44.4431 73.6064 36.8759 70.7919C49.5726 72.8331 59.0443 80.4907 59.0443 89.6064ZM49.1917 89.6064C49.1917 99.3052 42.1196 107.356 32.9272 108.738C36.8505 106.215 39.7073 98.5953 39.7073 89.6064C39.7073 80.6175 36.8505 72.9852 32.9272 70.4749C42.1196 71.8568 49.1917 79.9202 49.1917 89.6064ZM1.17292 89.6064C1.17292 80.4907 10.6446 72.8331 23.3413 70.7919C15.7741 73.5938 10.3526 80.9725 10.3526 89.6064C10.3526 98.2403 15.7741 105.606 23.3413 108.421C10.6446 106.38 1.17292 98.722 1.17292 89.6064ZM11.0255 89.6064C11.0255 79.9075 18.0976 71.8568 27.2899 70.4749C23.3667 72.9979 20.5099 80.6175 20.5099 89.6064C20.5099 98.5953 23.3667 106.228 27.2899 108.738C18.0976 107.356 11.0255 99.2926 11.0255 89.6064ZM30.1086 108.953C25.1823 108.953 21.1828 100.269 21.1828 89.6064C21.1828 78.944 25.1823 70.2594 30.1086 70.2594C35.0349 70.2594 39.0343 78.944 39.0343 89.6064C39.0343 100.269 35.0349 108.953 30.1086 108.953Z" fill="#FDD949"/>
<defs>
<linearGradient id="paint0_linear_47_327" x1="28.7114" y1="139.241" x2="28.9527" y2="139.241" gradientUnits="userSpaceOnUse">
<stop stop-color="#AB0000"/>
<stop offset="0.5" stop-color="#C22F32"/>
<stop offset="0.7" stop-color="#C02628"/>
<stop offset="1" stop-color="#BD1111"/>
</linearGradient>
<linearGradient id="paint1_linear_47_327" x1="29.0801" y1="139.216" x2="29.3213" y2="139.216" gradientUnits="userSpaceOnUse">
<stop stop-color="#AB0000"/>
<stop offset="0.5" stop-color="#C22F32"/>
<stop offset="0.7" stop-color="#C02628"/>
<stop offset="1" stop-color="#BD1111"/>
</linearGradient>
<linearGradient id="paint2_linear_47_327" x1="29.4482" y1="139.165" x2="29.6768" y2="139.165" gradientUnits="userSpaceOnUse">
<stop stop-color="#AB0000"/>
<stop offset="0.5" stop-color="#C22F32"/>
<stop offset="0.7" stop-color="#C02628"/>
<stop offset="1" stop-color="#BD1111"/>
</linearGradient>
<linearGradient id="paint3_linear_47_327" x1="29.8032" y1="139.165" x2="30.0445" y2="139.165" gradientUnits="userSpaceOnUse">
<stop stop-color="#AB0000"/>
<stop offset="0.5" stop-color="#C22F32"/>
<stop offset="0.7" stop-color="#C02628"/>
<stop offset="1" stop-color="#BD1111"/>
</linearGradient>
<linearGradient id="paint4_linear_47_327" x1="30.1719" y1="139.165" x2="30.4004" y2="139.165" gradientUnits="userSpaceOnUse">
<stop stop-color="#AB0000"/>
<stop offset="0.5" stop-color="#C22F32"/>
<stop offset="0.7" stop-color="#C02628"/>
<stop offset="1" stop-color="#BD1111"/>
</linearGradient>
<linearGradient id="paint5_linear_47_327" x1="30.5269" y1="139.165" x2="30.7681" y2="139.165" gradientUnits="userSpaceOnUse">
<stop stop-color="#AB0000"/>
<stop offset="0.5" stop-color="#C22F32"/>
<stop offset="0.7" stop-color="#C02628"/>
<stop offset="1" stop-color="#BD1111"/>
</linearGradient>
<linearGradient id="paint6_linear_47_327" x1="30.8955" y1="139.216" x2="31.1367" y2="139.216" gradientUnits="userSpaceOnUse">
<stop stop-color="#AB0000"/>
<stop offset="0.5" stop-color="#C22F32"/>
<stop offset="0.7" stop-color="#C02628"/>
<stop offset="1" stop-color="#BD1111"/>
</linearGradient>
<linearGradient id="paint7_linear_47_327" x1="31.2632" y1="0.224279" x2="31.4917" y2="0.224279" gradientUnits="userSpaceOnUse">
<stop stop-color="#AB0000"/>
<stop offset="0.5" stop-color="#C22F32"/>
<stop offset="0.7" stop-color="#C02628"/>
<stop offset="1" stop-color="#BD1111"/>
</linearGradient>
<linearGradient id="paint8_linear_47_327" x1="28.5342" y1="138.887" x2="28.7754" y2="138.887" gradientUnits="userSpaceOnUse">
<stop stop-color="#D61313"/>
<stop offset="0.5" stop-color="#E0363A"/>
<stop offset="0.68" stop-color="#DD2D30"/>
<stop offset="0.97" stop-color="#D61515"/>
<stop offset="1" stop-color="#D61313"/>
</linearGradient>
<linearGradient id="paint9_linear_47_327" x1="28.9023" y1="138.925" x2="29.1309" y2="138.925" gradientUnits="userSpaceOnUse">
<stop stop-color="#D61313"/>
<stop offset="0.5" stop-color="#E0363A"/>
<stop offset="0.68" stop-color="#DD2D30"/>
<stop offset="0.97" stop-color="#D61515"/>
<stop offset="1" stop-color="#D61313"/>
</linearGradient>
<linearGradient id="paint10_linear_47_327" x1="29.2578" y1="138.963" x2="29.499" y2="138.963" gradientUnits="userSpaceOnUse">
<stop stop-color="#D61313"/>
<stop offset="0.5" stop-color="#E0363A"/>
<stop offset="0.68" stop-color="#DD2D30"/>
<stop offset="0.97" stop-color="#D61515"/>
<stop offset="1" stop-color="#D61313"/>
</linearGradient>
<linearGradient id="paint11_linear_47_327" x1="29.626" y1="138.988" x2="29.8672" y2="138.988" gradientUnits="userSpaceOnUse">
<stop stop-color="#D61313"/>
<stop offset="0.5" stop-color="#E0363A"/>
<stop offset="0.68" stop-color="#DD2D30"/>
<stop offset="0.97" stop-color="#D61515"/>
<stop offset="1" stop-color="#D61313"/>
</linearGradient>
<linearGradient id="paint12_linear_47_327" x1="29.9814" y1="138.988" x2="30.2227" y2="138.988" gradientUnits="userSpaceOnUse">
<stop stop-color="#D61313"/>
<stop offset="0.5" stop-color="#E0363A"/>
<stop offset="0.68" stop-color="#DD2D30"/>
<stop offset="0.97" stop-color="#D61515"/>
<stop offset="1" stop-color="#D61313"/>
</linearGradient>
<linearGradient id="paint13_linear_47_327" x1="30.3496" y1="138.988" x2="30.5908" y2="138.988" gradientUnits="userSpaceOnUse">
<stop stop-color="#D61313"/>
<stop offset="0.5" stop-color="#E0363A"/>
<stop offset="0.68" stop-color="#DD2D30"/>
<stop offset="0.97" stop-color="#D61515"/>
<stop offset="1" stop-color="#D61313"/>
</linearGradient>
<linearGradient id="paint14_linear_47_327" x1="30.7178" y1="138.963" x2="30.9463" y2="138.963" gradientUnits="userSpaceOnUse">
<stop stop-color="#D61313"/>
<stop offset="0.5" stop-color="#E0363A"/>
<stop offset="0.68" stop-color="#DD2D30"/>
<stop offset="0.97" stop-color="#D61515"/>
<stop offset="1" stop-color="#D61313"/>
</linearGradient>
<linearGradient id="paint15_linear_47_327" x1="31.0732" y1="138.925" x2="31.3145" y2="138.925" gradientUnits="userSpaceOnUse">
<stop stop-color="#D61313"/>
<stop offset="0.5" stop-color="#E0363A"/>
<stop offset="0.68" stop-color="#DD2D30"/>
<stop offset="0.97" stop-color="#D61515"/>
<stop offset="1" stop-color="#D61313"/>
</linearGradient>
<linearGradient id="paint16_linear_47_327" x1="31.4419" y1="0.224456" x2="31.6831" y2="0.224456" gradientUnits="userSpaceOnUse">
<stop stop-color="#D61313"/>
<stop offset="0.5" stop-color="#E0363A"/>
<stop offset="0.68" stop-color="#DD2D30"/>
<stop offset="0.97" stop-color="#D61515"/>
<stop offset="1" stop-color="#D61313"/>
</linearGradient>
<linearGradient id="paint17_linear_47_327" x1="28.5342" y1="139.077" x2="31.6829" y2="139.077" gradientUnits="userSpaceOnUse">
<stop/>
<stop offset="0.42" stop-color="#D3D3D3"/>
<stop offset="0.5" stop-color="white"/>
<stop offset="0.54" stop-color="#F5F5F5"/>
<stop offset="0.61" stop-color="#DADADA"/>
<stop offset="0.71" stop-color="#AFAFAF"/>
<stop offset="0.82" stop-color="#737373"/>
<stop offset="0.94" stop-color="#282828"/>
<stop offset="1"/>
</linearGradient>
<linearGradient id="paint18_linear_47_327" x1="30.1086" y1="130.405" x2="30.1086" y2="127.223" gradientUnits="userSpaceOnUse">
<stop stop-color="white"/>
<stop offset="1" stop-color="#D3A358"/>
</linearGradient>
<linearGradient id="paint19_linear_47_327" x1="31.9472" y1="111.526" x2="21.7521" y2="76.8856" gradientUnits="userSpaceOnUse">
<stop stop-color="#BB2C26"/>
<stop offset="1" stop-color="#FF160D"/>
</linearGradient>
</defs>
</svg>
