<svg width="1279" height="75" viewBox="0 0 1279 75" fill="none" xmlns="http://www.w3.org/2000/svg">
<rect width="1279" height="76" rx="12" fill="#BB2C26"/>
<path d="M30.7266 46H27.0469L27.0703 43.4688H30.7266C31.7188 43.4688 32.5508 43.25 33.2227 42.8125C33.8945 42.3672 34.4023 41.7305 34.7461 40.9023C35.0898 40.0664 35.2617 39.0664 35.2617 37.9023V37.0234C35.2617 36.125 35.1641 35.332 34.9688 34.6445C34.7734 33.957 34.4844 33.3789 34.1016 32.9102C33.7266 32.4414 33.2617 32.0859 32.707 31.8438C32.1523 31.6016 31.5156 31.4805 30.7969 31.4805H26.9766V28.9375H30.7969C31.9375 28.9375 32.9766 29.1289 33.9141 29.5117C34.8594 29.8945 35.6758 30.4453 36.3633 31.1641C37.0586 31.875 37.5898 32.7266 37.957 33.7188C38.332 34.7109 38.5195 35.8203 38.5195 37.0469V37.9023C38.5195 39.1211 38.332 40.2305 37.957 41.2305C37.5898 42.2227 37.0586 43.0742 36.3633 43.7852C35.6758 44.4961 34.8555 45.043 33.9023 45.4258C32.9492 45.8086 31.8906 46 30.7266 46ZM28.8516 28.9375V46H25.6289V28.9375H28.8516ZM48.0117 43.3047V37.457C48.0117 37.0273 47.9375 36.6562 47.7891 36.3438C47.6406 36.0312 47.4141 35.7891 47.1094 35.6172C46.8047 35.4453 46.418 35.3594 45.9492 35.3594C45.5352 35.3594 45.1719 35.4297 44.8594 35.5703C44.5547 35.7109 44.3203 35.9102 44.1562 36.168C43.9922 36.418 43.9102 36.707 43.9102 37.0352H40.8047C40.8047 36.5117 40.9297 36.0156 41.1797 35.5469C41.4297 35.0703 41.7852 34.6484 42.2461 34.2812C42.7148 33.9062 43.2734 33.6133 43.9219 33.4023C44.5781 33.1914 45.3125 33.0859 46.125 33.0859C47.0859 33.0859 47.9414 33.25 48.6914 33.5781C49.4492 33.8984 50.043 34.3828 50.4727 35.0312C50.9102 35.6797 51.1289 36.4961 51.1289 37.4805V43.0117C51.1289 43.6445 51.168 44.1875 51.2461 44.6406C51.332 45.0859 51.457 45.4727 51.6211 45.8008V46H48.4688C48.3203 45.6797 48.207 45.2734 48.1289 44.7812C48.0508 44.2812 48.0117 43.7891 48.0117 43.3047ZM48.4453 38.2773L48.4688 40.1172H46.5117C46.0273 40.1172 45.6016 40.168 45.2344 40.2695C44.8672 40.3633 44.5664 40.5039 44.332 40.6914C44.0977 40.8711 43.9219 41.0898 43.8047 41.3477C43.6875 41.5977 43.6289 41.8828 43.6289 42.2031C43.6289 42.5156 43.6992 42.7969 43.8398 43.0469C43.9883 43.2969 44.1992 43.4961 44.4727 43.6445C44.7539 43.7852 45.082 43.8555 45.457 43.8555C46.0039 43.8555 46.4805 43.7461 46.8867 43.5273C47.293 43.3008 47.6094 43.0273 47.8359 42.707C48.0625 42.3867 48.1836 42.082 48.1992 41.793L49.0898 43.1289C48.9805 43.4492 48.8164 43.7891 48.5977 44.1484C48.3789 44.5078 48.0977 44.8438 47.7539 45.1562C47.4102 45.4688 46.9961 45.7266 46.5117 45.9297C46.0273 46.1328 45.4648 46.2344 44.8242 46.2344C44.0039 46.2344 43.2695 46.0703 42.6211 45.7422C41.9727 45.4141 41.4609 44.9648 41.0859 44.3945C40.7109 43.8242 40.5234 43.1758 40.5234 42.4492C40.5234 41.7773 40.6484 41.1836 40.8984 40.668C41.1484 40.1523 41.5195 39.7188 42.0117 39.3672C42.5039 39.0078 43.1133 38.7383 43.8398 38.5586C44.5742 38.3711 45.4141 38.2773 46.3594 38.2773H48.4453ZM56.9531 36.0273V46H53.8594V33.3203H56.7656L56.9531 36.0273ZM56.4609 39.2031H55.5469C55.5547 38.2812 55.6797 37.4453 55.9219 36.6953C56.1641 35.9453 56.5039 35.3008 56.9414 34.7617C57.3867 34.2227 57.9141 33.8086 58.5234 33.5195C59.1328 33.2305 59.8125 33.0859 60.5625 33.0859C61.1719 33.0859 61.7227 33.1719 62.2148 33.3438C62.707 33.5156 63.1289 33.7891 63.4805 34.1641C63.8398 34.5391 64.1133 35.0312 64.3008 35.6406C64.4961 36.2422 64.5938 36.9844 64.5938 37.8672V46H61.4766V37.8438C61.4766 37.2656 61.3906 36.8086 61.2188 36.4727C61.0547 36.1367 60.8125 35.8984 60.4922 35.7578C60.1797 35.6172 59.793 35.5469 59.332 35.5469C58.8555 35.5469 58.4375 35.6445 58.0781 35.8398C57.7266 36.0273 57.4297 36.2891 57.1875 36.625C56.9531 36.9609 56.7734 37.3477 56.6484 37.7852C56.5234 38.2227 56.4609 38.6953 56.4609 39.2031ZM70.3594 28V46H67.2539V28H70.3594ZM69.8672 39.2031H68.9531C68.9531 38.3203 69.0703 37.5078 69.3047 36.7656C69.5391 36.0234 69.8711 35.3789 70.3008 34.832C70.7305 34.2773 71.2422 33.8477 71.8359 33.543C72.4375 33.2383 73.1016 33.0859 73.8281 33.0859C74.4531 33.0859 75.0195 33.1758 75.5273 33.3555C76.043 33.5273 76.4844 33.8047 76.8516 34.1875C77.2188 34.5703 77.5 35.0703 77.6953 35.6875C77.8984 36.2969 78 37.0391 78 37.9141V46H74.8828V37.8906C74.8828 37.3047 74.7969 36.8438 74.625 36.5078C74.4531 36.1641 74.207 35.918 73.8867 35.7695C73.5742 35.6211 73.1875 35.5469 72.7266 35.5469C72.2266 35.5469 71.7969 35.6445 71.4375 35.8398C71.0781 36.0273 70.7812 36.2891 70.5469 36.625C70.3203 36.9609 70.1484 37.3477 70.0312 37.7852C69.9219 38.2227 69.8672 38.6953 69.8672 39.2031ZM93.6797 42.5312C93.6797 42.2656 93.6094 42.0273 93.4688 41.8164C93.3281 41.6055 93.0625 41.4141 92.6719 41.2422C92.2891 41.0625 91.7266 40.8945 90.9844 40.7383C90.3281 40.5977 89.7227 40.4219 89.168 40.2109C88.6133 40 88.1367 39.7461 87.7383 39.4492C87.3398 39.1445 87.0273 38.7891 86.8008 38.3828C86.582 37.9688 86.4727 37.4922 86.4727 36.9531C86.4727 36.4297 86.5859 35.9375 86.8125 35.4766C87.0391 35.0078 87.3672 34.5977 87.7969 34.2461C88.2266 33.8867 88.75 33.6055 89.3672 33.4023C89.9844 33.1914 90.6797 33.0859 91.4531 33.0859C92.5312 33.0859 93.457 33.2617 94.2305 33.6133C95.0117 33.9648 95.6094 34.4492 96.0234 35.0664C96.4375 35.6758 96.6445 36.3633 96.6445 37.1289H93.5508C93.5508 36.793 93.4727 36.4883 93.3164 36.2148C93.168 35.9414 92.9375 35.7227 92.625 35.5586C92.3125 35.3867 91.918 35.3008 91.4414 35.3008C91.0117 35.3008 90.6484 35.3711 90.3516 35.5117C90.0625 35.6523 89.8438 35.8359 89.6953 36.0625C89.5469 36.2891 89.4727 36.5391 89.4727 36.8125C89.4727 37.0156 89.5117 37.1992 89.5898 37.3633C89.6758 37.5195 89.8125 37.6641 90 37.7969C90.1875 37.9297 90.4414 38.0508 90.7617 38.1602C91.0898 38.2695 91.4922 38.375 91.9688 38.4766C92.9141 38.6641 93.7383 38.9141 94.4414 39.2266C95.1523 39.5312 95.707 39.9375 96.1055 40.4453C96.5039 40.9531 96.7031 41.6016 96.7031 42.3906C96.7031 42.9531 96.582 43.4688 96.3398 43.9375C96.0977 44.3984 95.7461 44.8008 95.2852 45.1445C94.8242 45.4883 94.2734 45.7578 93.6328 45.9531C92.9922 46.1406 92.2695 46.2344 91.4648 46.2344C90.3008 46.2344 89.3164 46.0273 88.5117 45.6133C87.707 45.1914 87.0977 44.6602 86.6836 44.0195C86.2695 43.3711 86.0625 42.6992 86.0625 42.0039H89.0273C89.0508 42.4961 89.1836 42.8906 89.4258 43.1875C89.668 43.4844 89.9727 43.6992 90.3398 43.832C90.7148 43.957 91.1094 44.0195 91.5234 44.0195C91.9922 44.0195 92.3867 43.957 92.707 43.832C93.0273 43.6992 93.2695 43.5234 93.4336 43.3047C93.5977 43.0781 93.6797 42.8203 93.6797 42.5312ZM106.043 43.3047V37.457C106.043 37.0273 105.969 36.6562 105.82 36.3438C105.672 36.0312 105.445 35.7891 105.141 35.6172C104.836 35.4453 104.449 35.3594 103.98 35.3594C103.566 35.3594 103.203 35.4297 102.891 35.5703C102.586 35.7109 102.352 35.9102 102.188 36.168C102.023 36.418 101.941 36.707 101.941 37.0352H98.8359C98.8359 36.5117 98.9609 36.0156 99.2109 35.5469C99.4609 35.0703 99.8164 34.6484 100.277 34.2812C100.746 33.9062 101.305 33.6133 101.953 33.4023C102.609 33.1914 103.344 33.0859 104.156 33.0859C105.117 33.0859 105.973 33.25 106.723 33.5781C107.48 33.8984 108.074 34.3828 108.504 35.0312C108.941 35.6797 109.16 36.4961 109.16 37.4805V43.0117C109.16 43.6445 109.199 44.1875 109.277 44.6406C109.363 45.0859 109.488 45.4727 109.652 45.8008V46H106.5C106.352 45.6797 106.238 45.2734 106.16 44.7812C106.082 44.2812 106.043 43.7891 106.043 43.3047ZM106.477 38.2773L106.5 40.1172H104.543C104.059 40.1172 103.633 40.168 103.266 40.2695C102.898 40.3633 102.598 40.5039 102.363 40.6914C102.129 40.8711 101.953 41.0898 101.836 41.3477C101.719 41.5977 101.66 41.8828 101.66 42.2031C101.66 42.5156 101.73 42.7969 101.871 43.0469C102.02 43.2969 102.23 43.4961 102.504 43.6445C102.785 43.7852 103.113 43.8555 103.488 43.8555C104.035 43.8555 104.512 43.7461 104.918 43.5273C105.324 43.3008 105.641 43.0273 105.867 42.707C106.094 42.3867 106.215 42.082 106.23 41.793L107.121 43.1289C107.012 43.4492 106.848 43.7891 106.629 44.1484C106.41 44.5078 106.129 44.8438 105.785 45.1562C105.441 45.4688 105.027 45.7266 104.543 45.9297C104.059 46.1328 103.496 46.2344 102.855 46.2344C102.035 46.2344 101.301 46.0703 100.652 45.7422C100.004 45.4141 99.4922 44.9648 99.1172 44.3945C98.7422 43.8242 98.5547 43.1758 98.5547 42.4492C98.5547 41.7773 98.6797 41.1836 98.9297 40.668C99.1797 40.1523 99.5508 39.7188 100.043 39.3672C100.535 39.0078 101.145 38.7383 101.871 38.5586C102.605 38.3711 103.445 38.2773 104.391 38.2773H106.477ZM102.691 31.5625L104.988 28H108.41L105.211 31.5625H102.691ZM117.152 43.7969C117.59 43.7969 117.98 43.7109 118.324 43.5391C118.668 43.3672 118.941 43.125 119.145 42.8125C119.355 42.5 119.469 42.1367 119.484 41.7227H122.402C122.387 42.582 122.145 43.3516 121.676 44.0312C121.207 44.7109 120.582 45.25 119.801 45.6484C119.027 46.0391 118.16 46.2344 117.199 46.2344C116.223 46.2344 115.371 46.0703 114.645 45.7422C113.918 45.4141 113.312 44.957 112.828 44.3711C112.352 43.7852 111.992 43.1055 111.75 42.332C111.516 41.5586 111.398 40.7305 111.398 39.8477V39.4727C111.398 38.5898 111.516 37.7617 111.75 36.9883C111.992 36.2148 112.352 35.5352 112.828 34.9492C113.312 34.3633 113.918 33.9062 114.645 33.5781C115.371 33.25 116.219 33.0859 117.188 33.0859C118.211 33.0859 119.109 33.2852 119.883 33.6836C120.664 34.082 121.273 34.6445 121.711 35.3711C122.156 36.0977 122.387 36.9531 122.402 37.9375H119.484C119.469 37.4844 119.367 37.0781 119.18 36.7188C118.992 36.3594 118.727 36.0703 118.383 35.8516C118.039 35.6328 117.621 35.5234 117.129 35.5234C116.605 35.5234 116.168 35.6328 115.816 35.8516C115.473 36.0703 115.203 36.3711 115.008 36.7539C114.82 37.1289 114.688 37.5508 114.609 38.0195C114.539 38.4805 114.504 38.9648 114.504 39.4727V39.8477C114.504 40.3633 114.539 40.8555 114.609 41.3242C114.688 41.793 114.82 42.2148 115.008 42.5898C115.203 42.957 115.473 43.25 115.816 43.4688C116.168 43.6875 116.613 43.7969 117.152 43.7969ZM127.5 28V46H124.395V28H127.5ZM127.008 39.2031H126.094C126.094 38.3203 126.211 37.5078 126.445 36.7656C126.68 36.0234 127.012 35.3789 127.441 34.832C127.871 34.2773 128.383 33.8477 128.977 33.543C129.578 33.2383 130.242 33.0859 130.969 33.0859C131.594 33.0859 132.16 33.1758 132.668 33.3555C133.184 33.5273 133.625 33.8047 133.992 34.1875C134.359 34.5703 134.641 35.0703 134.836 35.6875C135.039 36.2969 135.141 37.0391 135.141 37.9141V46H132.023V37.8906C132.023 37.3047 131.938 36.8438 131.766 36.5078C131.594 36.1641 131.348 35.918 131.027 35.7695C130.715 35.6211 130.328 35.5469 129.867 35.5469C129.367 35.5469 128.938 35.6445 128.578 35.8398C128.219 36.0273 127.922 36.2891 127.688 36.625C127.461 36.9609 127.289 37.3477 127.172 37.7852C127.062 38.2227 127.008 38.6953 127.008 39.2031ZM149.848 33.3203V35.5469H142.582V33.3203H149.848ZM144.527 30.2031H147.633V42.3438C147.633 42.7188 147.684 43.0078 147.785 43.2109C147.887 43.4141 148.039 43.5508 148.242 43.6211C148.445 43.6914 148.688 43.7266 148.969 43.7266C149.172 43.7266 149.359 43.7148 149.531 43.6914C149.703 43.668 149.848 43.6445 149.965 43.6211L149.977 45.9414C149.719 46.0273 149.426 46.0977 149.098 46.1523C148.777 46.207 148.414 46.2344 148.008 46.2344C147.312 46.2344 146.703 46.1172 146.18 45.8828C145.656 45.6406 145.25 45.2539 144.961 44.7227C144.672 44.1836 144.527 43.4727 144.527 42.5898V30.2031ZM151.055 39.7891V39.543C151.055 38.6133 151.188 37.7578 151.453 36.9766C151.719 36.1875 152.105 35.5039 152.613 34.9258C153.121 34.3477 153.742 33.8984 154.477 33.5781C155.211 33.25 156.047 33.0859 156.984 33.0859C157.938 33.0859 158.781 33.25 159.516 33.5781C160.258 33.8984 160.883 34.3477 161.391 34.9258C161.898 35.5039 162.285 36.1875 162.551 36.9766C162.816 37.7578 162.949 38.6133 162.949 39.543V39.7891C162.949 40.7109 162.816 41.5664 162.551 42.3555C162.285 43.1367 161.898 43.8203 161.391 44.4062C160.883 44.9844 160.262 45.4336 159.527 45.7539C158.793 46.0742 157.953 46.2344 157.008 46.2344C156.07 46.2344 155.23 46.0742 154.488 45.7539C153.746 45.4336 153.121 44.9844 152.613 44.4062C152.105 43.8203 151.719 43.1367 151.453 42.3555C151.188 41.5664 151.055 40.7109 151.055 39.7891ZM154.148 39.543V39.7891C154.148 40.3438 154.203 40.8633 154.312 41.3477C154.422 41.832 154.59 42.2578 154.816 42.625C155.043 42.9922 155.336 43.2812 155.695 43.4922C156.062 43.6953 156.5 43.7969 157.008 43.7969C157.508 43.7969 157.938 43.6953 158.297 43.4922C158.656 43.2812 158.949 42.9922 159.176 42.625C159.41 42.2578 159.582 41.832 159.691 41.3477C159.801 40.8633 159.855 40.3438 159.855 39.7891V39.543C159.855 38.9961 159.801 38.4844 159.691 38.0078C159.582 37.5234 159.41 37.0977 159.176 36.7305C158.949 36.3555 158.652 36.0625 158.285 35.8516C157.926 35.6328 157.492 35.5234 156.984 35.5234C156.484 35.5234 156.055 35.6328 155.695 35.8516C155.336 36.0625 155.043 36.3555 154.816 36.7305C154.59 37.0977 154.422 37.5234 154.312 38.0078C154.203 38.4844 154.148 38.9961 154.148 39.543ZM172.746 42.9883V33.3203H175.863V46H172.934L172.746 42.9883ZM173.145 40.3633L174.105 40.3398C174.105 41.1914 174.012 41.9766 173.824 42.6953C173.637 43.4141 173.344 44.0391 172.945 44.5703C172.555 45.0938 172.059 45.5039 171.457 45.8008C170.855 46.0898 170.145 46.2344 169.324 46.2344C168.699 46.2344 168.129 46.1484 167.613 45.9766C167.098 45.7969 166.652 45.5195 166.277 45.1445C165.91 44.7617 165.625 44.2734 165.422 43.6797C165.219 43.0781 165.117 42.3555 165.117 41.5117V33.3203H168.211V41.5352C168.211 41.957 168.258 42.3086 168.352 42.5898C168.453 42.8711 168.59 43.1016 168.762 43.2812C168.941 43.4531 169.148 43.5781 169.383 43.6562C169.625 43.7266 169.883 43.7617 170.156 43.7617C170.906 43.7617 171.496 43.6133 171.926 43.3164C172.363 43.0117 172.676 42.6055 172.863 42.0977C173.051 41.582 173.145 41.0039 173.145 40.3633ZM181.699 35.9102V46H178.605V33.3203H181.535L181.699 35.9102ZM185.555 33.2383L185.508 36.1211C185.336 36.0898 185.141 36.0664 184.922 36.0508C184.711 36.0352 184.512 36.0273 184.324 36.0273C183.848 36.0273 183.43 36.0938 183.07 36.2266C182.711 36.3516 182.41 36.5352 182.168 36.7773C181.934 37.0195 181.754 37.3164 181.629 37.668C181.504 38.0117 181.434 38.4023 181.418 38.8398L180.75 38.7578C180.75 37.9531 180.832 37.207 180.996 36.5195C181.16 35.832 181.398 35.2305 181.711 34.7148C182.023 34.1992 182.414 33.8008 182.883 33.5195C183.359 33.2305 183.906 33.0859 184.523 33.0859C184.695 33.0859 184.879 33.1016 185.074 33.1328C185.277 33.1562 185.438 33.1914 185.555 33.2383Z" fill="white"/>
</svg>
