<svg width="10" height="11" viewBox="0 0 10 11" fill="none" xmlns="http://www.w3.org/2000/svg">
<g id="Location">
<path id="Location_2" fill-rule="evenodd" clip-rule="evenodd" d="M0.861328 5.04779C0.861328 2.74786 2.78327 0.888916 5.10805 0.888916C7.43939 0.888916 9.36133 2.74786 9.36133 5.04779C9.36133 6.20676 8.93983 7.28273 8.24608 8.1947C7.48073 9.20067 6.53741 10.0771 5.4756 10.7651C5.23258 10.9241 5.01326 10.9361 4.74655 10.7651C3.6787 10.0771 2.73537 9.20067 1.97658 8.1947C1.28232 7.28273 0.861328 6.20676 0.861328 5.04779ZM3.70844 5.17729C3.70844 5.94777 4.33716 6.55375 5.10805 6.55375C5.87945 6.55375 6.51421 5.94777 6.51421 5.17729C6.51421 4.41281 5.87945 3.77733 5.10805 3.77733C4.33716 3.77733 3.70844 4.41281 3.70844 5.17729Z" fill="url(#paint0_linear_3850_404)"/>
</g>
<defs>
<linearGradient id="paint0_linear_3850_404" x1="5.37826" y1="11.4554" x2="1.48897" y2="3.89825" gradientUnits="userSpaceOnUse">
<stop stop-color="#BB2C26"/>
<stop offset="1" stop-color="#FF160D"/>
</linearGradient>
</defs>
</svg>
