<svg width="48" height="48" viewBox="0 0 48 48" fill="none" xmlns="http://www.w3.org/2000/svg">
<rect width="48" height="48" rx="24" fill="#F4F5F6"/>
<path d="M24.0201 14.91C20.7101 14.91 18.0201 17.6 18.0201 20.91V23.8C18.0201 24.41 17.7601 25.34 17.4501 25.86L16.3001 27.77C15.5901 28.95 16.0801 30.26 17.3801 30.7C21.6901 32.14 26.3401 32.14 30.6501 30.7C31.8601 30.3 32.3901 28.87 31.7301 27.77L30.5801 25.86C30.2801 25.34 30.0201 24.41 30.0201 23.8V20.91C30.0201 17.61 27.3201 14.91 24.0201 14.91Z" stroke="#141415" stroke-width="1.5" stroke-miterlimit="10" stroke-linecap="round"/>
<path d="M25.8699 15.1999C25.5599 15.1099 25.2399 15.0399 24.9099 14.9999C23.9499 14.8799 23.0299 14.9499 22.1699 15.1999C22.4599 14.4599 23.1799 13.9399 24.0199 13.9399C24.8599 13.9399 25.5799 14.4599 25.8699 15.1999Z" stroke="#141415" stroke-width="1.5" stroke-miterlimit="10" stroke-linecap="round" stroke-linejoin="round"/>
<path d="M27.02 31.0601C27.02 32.7101 25.67 34.0601 24.02 34.0601C23.2 34.0601 22.44 33.7201 21.9 33.1801C21.36 32.6401 21.02 31.8801 21.02 31.0601" stroke="#141415" stroke-width="1.5" stroke-miterlimit="10"/>
</svg>
