<svg width="1279" height="75" viewBox="0 0 1279 75" fill="none" xmlns="http://www.w3.org/2000/svg">
<g clip-path="url(#clip0_176_40740)">
<g opacity="0.1">
<path opacity="0.5" d="M174.775 89.4055C174.808 89.4055 174.841 89.3924 174.873 89.3924C176.596 88.7934 178.543 88.4577 180.588 88.2603C163.279 60.5378 132.535 42.0496 97.5353 42.0496C62.5359 42.0496 31.4757 60.7945 14.2324 88.8C16.2316 89.0304 18.2045 89.3529 20.1643 89.7083C36.6513 64.3487 65.1138 47.4993 97.5353 47.4993C129.957 47.4993 158.242 64.217 174.775 89.4121V89.4055Z" fill="white"/>
<path opacity="0.5" d="M144.273 99.6797C145.661 98.7714 147.108 97.929 148.581 97.1128C136.835 81.7049 118.356 71.7006 97.535 71.7006C76.7142 71.7006 57.3337 82.1919 45.6475 98.2449C47.1534 99.0018 48.6397 99.7784 50.0997 100.614C60.9112 86.1278 78.1216 76.6961 97.535 76.6961C116.948 76.6961 133.422 85.7263 144.273 99.6797Z" fill="white"/>
<path opacity="0.5" d="M365.476 90.0176C367.376 89.6293 369.336 89.287 371.342 88.9909C354.118 60.8669 323.15 42.0562 287.842 42.0562C252.533 42.0562 222.091 60.551 204.782 88.2735C205.525 88.3656 206.255 88.4709 206.959 88.6157C208.393 88.2998 209.892 88.1681 211.424 88.1286C228.076 63.6444 256.084 47.4993 287.842 47.4993C319.599 47.4993 349.002 64.4869 365.476 90.0176Z" fill="white"/>
<path opacity="0.5" d="M336.27 101.944C336.369 101.898 336.448 101.832 336.546 101.786C337.895 100.976 339.282 100.233 340.67 99.502C329.069 82.725 309.728 71.694 287.842 71.694C265.956 71.694 248.259 81.8562 236.526 97.4748C238.085 98.1593 239.637 98.8504 241.182 99.5744C252.033 85.6737 268.895 76.6895 287.842 76.6895C307.854 76.6895 325.538 86.6938 336.27 101.944Z" fill="white"/>
<path opacity="0.5" d="M554.955 88.7407C556.895 88.3063 558.841 87.9246 560.794 87.6021C543.413 60.2416 512.866 42.0496 478.143 42.0496C443.419 42.0496 412.241 60.6365 394.958 88.4775C396.944 88.7539 398.884 89.1423 400.758 89.6359C417.272 64.3224 445.747 47.4993 478.149 47.4993C510.551 47.4993 538.362 63.9208 554.961 88.7407H554.955Z" fill="white"/>
<path opacity="0.5" d="M525.498 100.496C526.945 99.6402 528.405 98.8175 529.885 98.0408C518.186 82.1063 499.377 71.7006 478.149 71.7006C458.262 71.7006 440.459 80.7966 428.668 95.0461C430.181 95.8096 431.647 96.6718 433.081 97.6065C443.958 84.8378 460.116 76.6961 478.155 76.6961C497.516 76.6961 514.687 86.0817 525.505 100.502L525.498 100.496Z" fill="white"/>
<path opacity="0.5" d="M745.321 88.8263C747.274 88.4051 749.241 88.0694 751.213 87.7798C733.852 60.3206 703.252 42.0496 668.45 42.0496C633.648 42.0496 603.719 59.9191 586.258 86.8715C588.284 87.0821 590.296 87.3586 592.302 87.7008C608.986 63.4536 636.87 47.4927 668.443 47.4927C700.016 47.4927 728.722 63.9603 745.314 88.8263H745.321Z" fill="white"/>
<path opacity="0.5" d="M715.799 100.496C717.239 99.6402 718.706 98.8307 720.186 98.0474C708.486 82.1063 689.678 71.7006 668.443 71.7006C647.208 71.7006 629.813 81.3297 618.042 96.2572C619.528 97.0207 621.001 97.8237 622.454 98.6793C633.325 85.2788 649.897 76.6961 668.443 76.6961C686.988 76.6961 704.975 86.0817 715.793 100.502L715.799 100.496Z" fill="white"/>
<path opacity="0.5" d="M935.726 88.9843C937.666 88.5499 939.613 88.1747 941.573 87.872C924.224 60.3667 893.598 42.0496 858.757 42.0496C823.915 42.0496 793.512 60.2285 776.125 87.5626C778.137 87.8127 780.129 88.1286 782.096 88.4972C798.714 63.8089 826.835 47.4927 858.757 47.4927C890.678 47.4927 919.154 64.0261 935.726 88.9843Z" fill="white"/>
<path opacity="0.5" d="M906.33 100.799C907.77 99.9364 909.23 99.1137 910.703 98.3238C899.017 82.2248 880.117 71.694 858.75 71.694C837.383 71.694 819.265 81.8036 807.533 97.3432C809.019 98.1198 810.486 98.936 811.926 99.7916C822.771 85.7658 839.705 76.683 858.75 76.683C877.795 76.683 895.525 86.2002 906.33 100.792V100.799Z" fill="white"/>
<path opacity="0.5" d="M1125.46 88.1023C1127.42 87.6811 1129.39 87.352 1131.38 87.0624C1113.94 60.0047 1083.56 42.0562 1049.06 42.0562C1014.56 42.0562 983.885 60.189 966.484 87.4836C968.509 87.7206 970.502 88.0233 972.482 88.3919C989.113 63.7695 1017.19 47.5059 1049.06 47.5059C1080.93 47.5059 1108.81 63.6444 1125.47 88.1089L1125.46 88.1023Z" fill="white"/>
<path opacity="0.5" d="M1095.87 99.7718C1097.31 98.9162 1098.77 98.1067 1100.26 97.3234C1088.52 81.797 1069.98 71.7006 1049.06 71.7006C1028.15 71.7006 1009.8 81.6851 998.058 97.0667C999.55 97.8368 1001.02 98.6464 1002.46 99.4888C1013.32 85.6408 1030.15 76.6961 1049.06 76.6961C1067.96 76.6961 1085.02 85.7658 1095.86 99.7718H1095.87Z" fill="white"/>
<path opacity="0.5" d="M1278 50.053C1266.14 44.9258 1253.09 42.0496 1239.37 42.0496C1204.9 42.0496 1174.55 59.9718 1157.1 86.99C1159.11 87.2599 1161.09 87.5824 1163.05 87.9773C1179.72 63.5786 1207.67 47.4993 1239.37 47.4993C1253.16 47.4993 1266.25 50.5466 1278 55.9964V50.0596V50.053Z" fill="white"/>
<path opacity="0.5" d="M1278 84.7324C1267.25 76.5644 1253.88 71.6938 1239.37 71.6938C1218.58 71.6938 1200.1 81.6784 1188.36 97.0666C1189.84 97.8564 1191.29 98.6792 1192.72 99.548C1203.58 85.6604 1220.43 76.6829 1239.37 76.6829C1254.14 76.6829 1267.63 82.1589 1278 91.1562V84.7258V84.7324Z" fill="white"/>
<path opacity="0.5" d="M1.59218 -0.251709C1.19102 -0.251709 0.803014 -0.218802 0.401855 -0.21222V5.23089C0.796438 5.23089 1.19102 5.1914 1.59218 5.1914C33.8953 5.1914 62.2987 21.9092 78.8317 47.1042C78.8645 47.1042 78.8974 47.0911 78.9303 47.0911C80.6533 46.4921 82.5999 46.1564 84.6452 45.959C67.3362 18.2365 36.5916 -0.251709 1.59218 -0.251709Z" fill="white"/>
<path opacity="0.5" d="M1.59218 29.3993C1.19102 29.3993 0.803014 29.4256 0.401855 29.4322V34.4278C0.796438 34.4212 1.19102 34.3949 1.59218 34.3949C20.5913 34.3949 37.4794 43.4251 48.3304 57.3785C49.7181 56.4702 51.1649 55.6277 52.6314 54.8116C40.886 39.4036 22.4064 29.3993 1.5856 29.3993H1.59218Z" fill="white"/>
<path opacity="0.5" d="M1.59218 65.9085C1.19102 65.9085 0.803014 65.9678 0.401855 65.981V70.9765C0.796438 70.9568 1.18444 70.8975 1.59218 70.8975C10.1612 70.8975 17.6319 75.6628 21.5186 82.6855C22.6629 81.3758 23.8203 80.0725 24.9712 78.7694C20.0389 71.0489 11.4107 65.902 1.59218 65.902V65.9085Z" fill="white"/>
<path opacity="0.5" d="M269.533 47.7165C271.434 47.3347 273.394 46.9859 275.393 46.6897C258.169 18.5657 227.201 -0.251587 191.893 -0.251587C156.584 -0.251587 126.142 18.2432 108.833 45.9657C109.576 46.0578 110.306 46.1632 111.01 46.3079C112.443 45.992 113.943 45.8604 115.482 45.8209C132.133 21.3432 160.142 5.19152 191.899 5.19152C223.656 5.19152 253.059 22.1857 269.533 47.7099V47.7165Z" fill="white"/>
<path opacity="0.5" d="M240.327 59.6426C240.426 59.5965 240.505 59.5373 240.604 59.4912C241.952 58.6816 243.339 57.9379 244.727 57.2073C233.126 40.4304 213.785 29.3993 191.899 29.3993C170.013 29.3993 152.316 39.5616 140.583 55.1801C142.142 55.8646 143.694 56.5557 145.24 57.2797C156.091 43.379 172.952 34.3949 191.899 34.3949C211.904 34.3949 229.595 44.3992 240.327 59.6426Z" fill="white"/>
<path opacity="0.5" d="M212.635 84.3507C213.726 82.8567 214.871 81.435 216.054 80.066C211.286 71.6281 202.251 65.9086 191.893 65.9086C182.166 65.9086 173.61 70.9502 168.652 78.5522C169.691 80.1318 170.671 81.7443 171.618 83.3898C175.386 75.9919 183.048 70.9107 191.893 70.9107C200.738 70.9107 209.064 76.4394 212.635 84.3573V84.3507Z" fill="white"/>
<path opacity="0.5" d="M459.011 46.4396C460.951 45.9986 462.898 45.6234 464.851 45.3009C447.47 17.9404 416.923 -0.251587 382.193 -0.251587C347.463 -0.251587 316.291 18.3354 299.008 46.1763C300.994 46.4527 302.934 46.8411 304.809 47.3347C321.322 22.0212 349.798 5.19811 382.199 5.19811C414.601 5.19811 442.413 21.6197 459.011 46.4462V46.4396Z" fill="white"/>
<path opacity="0.5" d="M429.549 58.2012C430.996 57.3456 432.456 56.5228 433.936 55.7396C422.236 39.8051 403.434 29.3993 382.199 29.3993C362.312 29.3993 344.51 38.4953 332.719 52.7449C334.231 53.5083 335.698 54.3706 337.132 55.3052C348.009 42.5365 364.16 34.3949 382.206 34.3949C401.567 34.3949 418.738 43.7805 429.556 58.2012H429.549Z" fill="white"/>
<path opacity="0.5" d="M401.725 82.0405C402.843 80.6913 403.968 79.3618 405.138 78.0783C400.14 70.7396 391.722 65.9086 382.2 65.9086C372.677 65.9086 363.825 71.0095 358.88 78.6772C359.912 80.2635 360.912 81.8628 361.872 83.4754C365.621 76.0314 373.315 70.8976 382.193 70.8976C390.493 70.8976 397.74 75.3732 401.718 82.0339L401.725 82.0405Z" fill="white"/>
<path opacity="0.5" d="M649.378 46.5252C651.331 46.1039 653.297 45.7682 655.27 45.4786C637.908 18.026 607.309 -0.251587 572.506 -0.251587C537.704 -0.251587 507.775 17.6179 490.315 44.5703C492.34 44.781 494.353 45.0574 496.359 45.3997C513.043 21.1524 540.92 5.19152 572.5 5.19152C604.08 5.19152 632.779 21.6592 649.371 46.5252H649.378Z" fill="white"/>
<path opacity="0.5" d="M619.857 58.1946C621.297 57.3455 622.763 56.5294 624.25 55.7462C612.55 39.8051 593.742 29.3993 572.507 29.3993C551.272 29.3993 533.877 39.0284 522.105 53.9625C523.592 54.726 525.065 55.529 526.518 56.3846C537.389 42.9841 553.961 34.4014 572.507 34.4014C591.052 34.4014 609.039 43.7871 619.857 58.2078V58.1946Z" fill="white"/>
<path opacity="0.5" d="M592.091 82.1326C593.189 80.7701 594.32 79.4406 595.491 78.144C590.493 70.7724 582.055 65.915 572.506 65.915C563.556 65.915 555.605 70.1998 550.521 76.8013C551.613 78.1111 552.665 79.4735 553.711 80.8623C557.815 74.8597 564.707 70.9106 572.506 70.9106C580.839 70.9106 588.125 75.4323 592.091 82.1392V82.1326Z" fill="white"/>
<path opacity="0.5" d="M839.783 46.6831C841.717 46.2553 843.67 45.8736 845.629 45.5708C828.274 18.0655 797.648 -0.251587 762.813 -0.251587C727.978 -0.251587 697.569 17.9273 680.181 45.2614C682.194 45.5115 684.186 45.8275 686.152 46.2026C702.771 21.5143 730.891 5.19152 762.813 5.19152C794.735 5.19152 823.204 21.725 839.783 46.6831Z" fill="white"/>
<path opacity="0.5" d="M810.387 58.4974C811.827 57.6352 813.281 56.819 814.76 56.0292C803.074 39.9302 784.167 29.3993 762.814 29.3993C741.46 29.3993 723.329 39.5089 711.59 55.0485C713.083 55.8251 714.543 56.6413 715.983 57.4969C726.828 43.4711 743.762 34.3949 762.814 34.3949C781.865 34.3949 799.589 43.9121 810.387 58.5039V58.4974Z" fill="white"/>
<path opacity="0.5" d="M782.714 82.6591C783.805 81.2901 784.936 79.954 786.1 78.6376C781.148 70.9896 772.566 65.9084 762.807 65.9084C753.048 65.9084 745.064 70.6408 740.04 77.8412C741.171 79.1707 742.276 80.5398 743.341 81.9285C747.333 75.3336 754.554 70.8975 762.807 70.8975C771.06 70.8975 778.82 75.6495 782.714 82.6525V82.6591Z" fill="white"/>
<path opacity="0.5" d="M1029.51 45.8011C1031.47 45.3799 1033.44 45.0508 1035.42 44.7612C1017.98 17.7035 987.607 -0.251587 953.108 -0.251587C918.608 -0.251587 887.929 17.8878 870.535 45.1759C872.56 45.4128 874.553 45.7221 876.532 46.0841C893.164 21.4617 921.245 5.19811 953.114 5.19811C984.983 5.19811 1012.86 21.3366 1029.51 45.8011Z" fill="white"/>
<path opacity="0.5" d="M999.918 57.4641C1001.36 56.6151 1002.83 55.7989 1004.31 55.0157C992.572 39.4893 974.02 29.3928 953.114 29.3928C932.208 29.3928 913.853 39.3774 902.108 54.759C903.607 55.5291 905.074 56.3387 906.521 57.1811C917.378 43.3331 934.207 34.3884 953.114 34.3884C972.021 34.3884 989.074 43.4581 999.918 57.4641Z" fill="white"/>
<path opacity="0.5" d="M972.205 81.3099C973.283 79.9804 974.401 78.6706 975.545 77.3937C970.495 70.45 962.333 65.902 953.113 65.902C943.893 65.902 935.758 70.4302 930.701 77.3608C931.832 78.6706 932.917 80.0067 933.983 81.3757C938.04 75.0835 945.09 70.8975 953.113 70.8975C961.137 70.8975 968.14 75.0506 972.205 81.3033V81.3099Z" fill="white"/>
<path opacity="0.5" d="M1219.62 45.4918C1221.55 45.0443 1223.48 44.6362 1225.43 44.3136C1207.95 17.506 1177.72 -0.258179 1143.41 -0.258179C1109.11 -0.258179 1078.6 17.664 1061.14 44.6822C1063.15 44.9521 1065.14 45.2746 1067.1 45.6695C1083.76 21.2708 1111.72 5.19152 1143.41 5.19152C1175.11 5.19152 1202.94 21.1919 1219.62 45.4918Z" fill="white"/>
<path opacity="0.5" d="M1190.31 57.576C1191.74 56.7072 1193.18 55.8648 1194.65 55.0618C1182.91 39.509 1164.35 29.3994 1143.42 29.3994C1122.5 29.3994 1104.16 39.384 1092.41 54.7722C1093.89 55.562 1095.34 56.3913 1096.77 57.2601C1107.63 43.3726 1124.48 34.395 1143.42 34.395C1162.36 34.395 1179.47 43.5108 1190.31 57.5826V57.576Z" fill="white"/>
<path opacity="0.5" d="M1162.89 81.9351C1163.96 80.5595 1165.08 79.2168 1166.23 77.9005C1161.22 70.6605 1152.87 65.9084 1143.43 65.9084C1133.98 65.9084 1125.68 70.6408 1120.66 77.8412C1121.78 79.1905 1122.88 80.5595 1123.94 81.968C1127.92 75.3467 1135.15 70.8975 1143.42 70.8975C1151.69 70.8975 1158.9 75.3336 1162.89 81.9285V81.9351Z" fill="white"/>
<path opacity="0.5" d="M1278 17.2954C1267.75 24.4235 1258.9 33.4339 1252.01 43.8727C1254.02 44.1228 1256 44.4321 1257.96 44.8073C1263.51 36.8696 1270.3 29.8732 1278 24.022V17.2888V17.2954Z" fill="white"/>
<path opacity="0.5" d="M174.775 4.80321C174.808 4.80321 174.841 4.79004 174.873 4.79004C176.596 4.19109 178.543 3.85544 180.588 3.65799C163.279 -24.0645 132.535 -42.5527 97.5353 -42.5527C62.5359 -42.5527 31.4757 -23.8078 14.2324 4.1977C16.2316 4.43464 18.2045 4.75057 20.1643 5.10599C36.6513 -20.2536 65.1138 -37.103 97.5353 -37.103C129.957 -37.103 158.242 -20.3853 174.775 4.8098V4.80321Z" fill="white"/>
<path opacity="0.5" d="M144.273 15.0772C145.661 14.1689 147.108 13.3265 148.581 12.5103C136.835 -2.89764 118.356 -12.902 97.535 -12.902C76.7142 -12.902 57.3337 -2.4106 45.6475 13.6424C47.1534 14.3993 48.6397 15.1759 50.0997 16.0118C60.9112 1.52529 78.1216 -7.90639 97.535 -7.90639C116.948 -7.90639 133.422 1.12381 144.273 15.0772Z" fill="white"/>
<path opacity="0.5" d="M117.461 40.3908C118.606 39.0811 119.757 37.7779 120.914 36.4747C115.982 28.7542 107.354 23.6073 97.535 23.6073C88.3741 23.6073 80.2589 28.0961 75.2017 34.9675C76.392 36.2312 77.5034 37.5344 78.5556 38.8376C82.633 32.677 89.6171 28.6029 97.535 28.6029C106.104 28.6029 113.575 33.3681 117.461 40.3908Z" fill="white"/>
<path opacity="0.5" d="M365.476 5.40873C367.376 5.02698 369.336 4.68473 371.342 4.38197C354.118 -23.742 323.15 -42.5527 287.842 -42.5527C252.533 -42.5527 222.091 -24.0579 204.782 3.66458C205.525 3.75672 206.255 3.862 206.959 4.0068C208.393 3.69088 209.892 3.55925 211.424 3.51976C228.076 -20.9579 256.084 -37.1096 287.842 -37.1096C319.599 -37.1096 349.002 -20.1154 365.476 5.40873Z" fill="white"/>
<path opacity="0.5" d="M336.27 17.3416C336.369 17.2955 336.448 17.2363 336.546 17.1836C337.895 16.3741 339.282 15.6369 340.67 14.8997C329.069 -1.87725 309.728 -12.9083 287.842 -12.9083C265.956 -12.9083 248.259 -2.74602 236.526 12.8726C238.085 13.5505 239.637 14.2481 241.182 14.9721C252.033 1.07141 268.895 -7.91273 287.842 -7.91273C307.854 -7.91273 325.538 2.09158 336.27 17.3416Z" fill="white"/>
<path opacity="0.5" d="M308.584 42.0494C309.676 40.5554 310.82 39.1337 312.004 37.7647C307.236 29.3269 298.2 23.6139 287.842 23.6139C278.116 23.6139 269.56 28.6555 264.601 36.2509C265.64 37.8305 266.62 39.4431 267.56 41.0885C271.329 33.6972 278.99 28.6094 287.835 28.6094C296.681 28.6094 305.006 34.1381 308.577 42.056L308.584 42.0494Z" fill="white"/>
<path opacity="0.5" d="M554.955 4.13845C556.895 3.69747 558.841 3.32232 560.794 2.99981C543.413 -24.3607 512.866 -42.5527 478.143 -42.5527C443.419 -42.5527 412.241 -23.9658 394.958 3.87516C396.944 4.15159 398.884 4.53992 400.758 5.03356C417.272 -20.28 445.747 -37.103 478.149 -37.103C510.551 -37.103 538.362 -20.6815 554.961 4.13845H554.955Z" fill="white"/>
<path opacity="0.5" d="M525.498 15.8936C526.945 15.0379 528.405 14.2152 529.885 13.432C518.186 -2.50251 499.377 -12.9083 478.149 -12.9083C458.262 -12.9083 440.459 -3.81228 428.668 10.4373C430.181 11.2008 431.647 12.0564 433.081 12.991C443.958 0.22236 460.116 -7.91932 478.155 -7.91932C497.516 -7.91932 514.687 1.46629 525.505 15.887L525.498 15.8936Z" fill="white"/>
<path opacity="0.5" d="M497.674 39.7394C498.792 38.3901 499.917 37.0606 501.087 35.7771C496.089 28.4384 487.672 23.6074 478.149 23.6074C468.626 23.6074 459.775 28.7083 454.829 36.3761C455.862 37.9623 456.861 39.5617 457.821 41.1742C461.57 33.7302 469.258 28.5964 478.142 28.5964C486.442 28.5964 493.689 33.072 497.668 39.7328L497.674 39.7394Z" fill="white"/>
<path opacity="0.5" d="M745.321 4.22401C747.274 3.80278 749.241 3.46712 751.213 3.17094C733.852 -24.2883 703.252 -42.5593 668.45 -42.5593C633.648 -42.5593 603.719 -24.6898 586.258 2.26265C588.284 2.47327 590.296 2.74967 592.302 3.09192C608.986 -21.1554 636.87 -37.1162 668.443 -37.1162C700.016 -37.1162 728.722 -20.6486 745.314 4.21742L745.321 4.22401Z" fill="white"/>
<path opacity="0.5" d="M715.799 15.8936C717.239 15.0379 718.706 14.2284 720.186 13.4452C708.486 -2.49591 689.678 -12.9017 668.443 -12.9017C647.208 -12.9017 629.813 -3.27258 618.042 11.6615C619.528 12.425 621.001 13.228 622.454 14.0836C633.325 0.683069 649.897 -7.90614 668.443 -7.90614C686.988 -7.90614 704.975 1.47947 715.793 15.9002L715.799 15.8936Z" fill="white"/>
<path opacity="0.5" d="M688.034 39.8315C689.133 38.4691 690.264 37.1461 691.434 35.8429C686.443 28.4713 677.999 23.614 668.45 23.614C659.5 23.614 651.549 27.8987 646.472 34.5003C647.563 35.81 648.616 37.1725 649.655 38.5612C653.758 32.5586 660.65 28.6096 668.45 28.6096C676.782 28.6096 684.069 33.1312 688.034 39.8381V39.8315Z" fill="white"/>
<path opacity="0.5" d="M935.726 4.38197C937.666 3.94757 939.613 3.57241 941.573 3.26965C924.224 -24.2356 893.598 -42.5527 858.757 -42.5527C823.915 -42.5527 793.512 -24.3738 776.125 2.96032C778.137 3.21043 780.129 3.52634 782.096 3.89492C798.714 -20.7933 826.835 -37.1162 858.757 -37.1162C890.678 -37.1162 919.154 -20.5827 935.726 4.37538V4.38197Z" fill="white"/>
<path opacity="0.5" d="M906.33 16.1963C907.77 15.3341 909.23 14.5114 910.703 13.7216C899.017 -2.37746 880.117 -12.9083 858.75 -12.9083C837.383 -12.9083 819.265 -2.79869 807.533 12.7409C809.019 13.5176 810.486 14.3337 811.926 15.1893C822.771 1.16353 839.705 -7.91932 858.75 -7.91932C877.795 -7.91932 895.525 1.59794 906.33 16.1898V16.1963Z" fill="white"/>
<path opacity="0.5" d="M878.663 40.3581C879.754 38.9891 880.885 37.6529 882.049 36.3366C877.104 28.6885 868.515 23.6074 858.756 23.6074C848.997 23.6074 841.013 28.3397 835.995 35.5402C837.126 36.8697 838.231 38.2387 839.296 39.6275C843.288 33.0325 850.509 28.603 858.756 28.603C867.003 28.603 874.776 33.3551 878.663 40.3581Z" fill="white"/>
<path opacity="0.5" d="M1125.46 3.50003C1127.42 3.08538 1129.39 2.7497 1131.38 2.4601C1113.94 -24.5976 1083.56 -42.5527 1049.06 -42.5527C1014.56 -42.5527 983.885 -24.4133 966.484 2.86817C968.509 3.10511 970.502 3.41446 972.482 3.77645C989.113 -20.846 1017.19 -37.1096 1049.06 -37.1096C1080.93 -37.1096 1108.81 -20.971 1125.47 3.49344L1125.46 3.50003Z" fill="white"/>
<path opacity="0.5" d="M1095.87 15.1695C1097.31 14.3204 1098.77 13.5043 1100.26 12.721C1088.52 -2.8054 1069.98 -12.9019 1049.06 -12.9019C1028.15 -12.9019 1009.8 -2.91726 998.058 12.4644C999.55 13.2344 1001.02 14.044 1002.46 14.8865C1013.32 1.03838 1030.15 -7.90626 1049.06 -7.90626C1067.96 -7.90626 1085.02 1.16343 1095.86 15.1695H1095.87Z" fill="white"/>
<path opacity="0.5" d="M1068.15 39.0152C1069.23 37.6791 1070.34 36.3759 1071.49 35.0991C1066.44 28.1553 1058.28 23.6139 1049.06 23.6139C1039.84 23.6139 1031.7 28.1421 1026.65 35.0728C1027.78 36.3825 1028.87 37.7186 1029.93 39.0876C1033.98 32.7954 1041.03 28.6094 1049.06 28.6094C1057.08 28.6094 1064.08 32.7625 1068.14 39.0152H1068.15Z" fill="white"/>
<path opacity="0.5" d="M1278 -34.5493C1266.14 -39.6765 1253.09 -42.5527 1239.37 -42.5527C1204.9 -42.5527 1174.55 -24.6305 1157.1 2.38771C1159.11 2.65756 1161.09 2.98007 1163.05 3.37498C1179.72 -21.0171 1207.67 -37.103 1239.37 -37.103C1253.16 -37.103 1266.25 -34.0556 1278 -28.6059V-34.5427V-34.5493Z" fill="white"/>
<path opacity="0.5" d="M1278 0.130188C1267.25 -8.03781 1253.88 -12.9083 1239.37 -12.9083C1218.58 -12.9083 1200.1 -2.92373 1188.36 12.4645C1189.84 13.2543 1191.29 14.0836 1192.72 14.9458C1203.58 1.05823 1220.43 -7.91932 1239.37 -7.91932C1254.14 -7.91932 1267.63 -2.4367 1278 6.55402V0.12364V0.130188Z" fill="white"/>
<path opacity="0.5" d="M1258.83 39.6341C1259.91 38.2585 1261.03 36.9158 1262.17 35.5994C1257.16 28.3595 1248.81 23.6074 1239.36 23.6074C1229.92 23.6074 1221.62 28.3397 1216.6 35.5402C1217.72 36.8895 1218.82 38.2584 1219.87 39.667C1223.86 33.0457 1231.09 28.603 1239.36 28.603C1247.62 28.603 1254.83 33.0325 1258.82 39.6341H1258.83Z" fill="white"/>
</g>
</g>
<defs>
<clipPath id="clip0_176_40740">
<rect width="1279" height="75" fill="white"/>
</clipPath>
</defs>
</svg>
