<svg width="19" height="18" viewBox="0 0 19 18" fill="none" xmlns="http://www.w3.org/2000/svg">
<path d="M16.0835 16.5H2.5835C2.276 16.5 2.021 16.245 2.021 15.9375C2.021 15.63 2.276 15.375 2.5835 15.375H16.0835C16.391 15.375 16.646 15.63 16.646 15.9375C16.646 16.245 16.391 16.5 16.0835 16.5Z" fill="url(#paint0_linear_4043_3831)"/>
<path d="M14.5984 2.61C13.1434 1.155 11.7184 1.1175 10.2259 2.61L9.31843 3.5175C9.24343 3.5925 9.21343 3.7125 9.24343 3.8175C9.81343 5.805 11.4034 7.395 13.3909 7.965C13.4209 7.9725 13.4509 7.98 13.4809 7.98C13.5634 7.98 13.6384 7.95 13.6984 7.89L14.5984 6.9825C15.3409 6.2475 15.7009 5.535 15.7009 4.815C15.7084 4.0725 15.3484 3.3525 14.5984 2.61Z" fill="url(#paint1_linear_4043_3831)"/>
<path d="M12.0412 8.6476C11.8237 8.5426 11.6137 8.4376 11.4112 8.3176C11.2462 8.2201 11.0887 8.1151 10.9312 8.0026C10.8037 7.9201 10.6537 7.8001 10.5112 7.6801C10.4962 7.6726 10.4437 7.6276 10.3837 7.5676C10.1362 7.3576 9.85874 7.0876 9.61124 6.7876C9.58874 6.7726 9.55124 6.7201 9.49874 6.6526C9.42374 6.5626 9.29624 6.4126 9.18374 6.2401C9.09374 6.1276 8.98874 5.9626 8.89124 5.7976C8.77124 5.5951 8.66624 5.3926 8.56124 5.1826C8.42357 4.88759 8.03638 4.79996 7.80618 5.03015L3.58874 9.2476C3.49124 9.3451 3.40124 9.5326 3.37874 9.6601L2.97374 12.5326C2.89874 13.0426 3.04124 13.5226 3.35624 13.8451C3.62624 14.1076 4.00124 14.2501 4.40624 14.2501C4.49624 14.2501 4.58624 14.2426 4.67624 14.2276L7.55624 13.8226C7.69124 13.8001 7.87874 13.7101 7.96874 13.6126L12.1931 9.38819C12.4187 9.1626 12.334 8.77445 12.0412 8.6476Z" fill="url(#paint2_linear_4043_3831)"/>
<defs>
<linearGradient id="paint0_linear_4043_3831" x1="9.79278" y1="16.5637" x2="9.75663" y2="15.4896" gradientUnits="userSpaceOnUse">
<stop stop-color="#F68E1E"/>
<stop offset="1" stop-color="#FFC909"/>
</linearGradient>
<linearGradient id="paint1_linear_4043_3831" x1="12.6696" y1="8.34683" x2="10.3954" y2="3.153" gradientUnits="userSpaceOnUse">
<stop stop-color="#F68E1E"/>
<stop offset="1" stop-color="#FFC909"/>
</linearGradient>
<linearGradient id="paint2_linear_4043_3831" x1="8.12181" y1="14.8003" x2="4.71576" y2="7.00446" gradientUnits="userSpaceOnUse">
<stop stop-color="#F68E1E"/>
<stop offset="1" stop-color="#FFC909"/>
</linearGradient>
</defs>
</svg>
