<svg width="22" height="24" viewBox="0 0 22 24" fill="none" xmlns="http://www.w3.org/2000/svg">
<g id="surface1">
<path id="Vector" d="M12.9491 5.27272H15.5191L11.5854 1.13464V3.90378C11.5854 4.65389 12.1938 5.27272 12.9491 5.27272Z" fill="#B9BDC1"/>
<path id="Vector_2" d="M8.68496 15.7097H4.12716C3.89643 15.7097 3.70761 15.521 3.70761 15.2901C3.70761 15.0594 3.89643 14.8706 4.12716 14.8706H8.96294C9.23026 14.1889 9.58693 13.6118 10.0276 13.0348H4.12716C3.89643 13.0348 3.70761 12.8462 3.70761 12.6153C3.70761 12.3846 3.89643 12.1958 4.12716 12.1958H10.8248C12.0834 11.0943 13.7513 10.3916 15.5712 10.3916C15.7442 10.3916 15.886 10.4073 16.0957 10.4231V6.11182H12.9488C11.7321 6.11182 10.7461 5.11535 10.7461 3.90379V0.5H2.70067C1.66211 0.5 0.833496 1.34957 0.833496 2.39328V18.4003C0.833496 19.444 1.66211 20.2726 2.70067 20.2726H9.02049C8.65867 19.4335 8.45938 18.4895 8.45938 17.5035C8.45405 16.8846 8.53807 16.2866 8.68496 15.7097ZM4.12716 9.57333H9.44021C9.67095 9.57333 9.85976 9.76215 9.85976 9.99306C9.85976 10.2238 9.67095 10.4126 9.44021 10.4126H4.12716C3.89643 10.4126 3.70761 10.2238 3.70761 9.99306C3.70761 9.76215 3.89643 9.57333 4.12716 9.57333Z" fill="#B9BDC1"/>
<path id="Vector_3" d="M15.5663 11.2466C12.1101 11.2466 9.29883 14.0576 9.29883 17.514C9.29883 20.9702 12.1101 23.7814 15.5663 23.7814C19.0226 23.7814 21.8339 20.9702 21.8339 17.514C21.8339 14.0576 19.0226 11.2466 15.5663 11.2466ZM18.9178 17.6083C18.8391 17.6819 18.7342 17.7186 18.6345 17.7186C18.5244 17.7186 18.4143 17.6714 18.3302 17.5874L15.9911 15.0699V21.0594C15.9911 21.2903 15.8023 21.4791 15.5716 21.4791C15.3408 21.4791 15.152 21.2903 15.152 21.0594V15.0648L12.8024 17.5822C12.6451 17.7501 12.3722 17.7605 12.2044 17.6032C12.0367 17.4458 12.0261 17.1783 12.1834 17.0104L15.2568 13.7115C15.3355 13.6276 15.4456 13.5804 15.5663 13.5804C15.687 13.5804 15.7918 13.6276 15.8758 13.7115L18.9493 17.0104C19.0962 17.1836 19.0855 17.4511 18.9178 17.6083Z" fill="#B9BDC1"/>
</g>
</svg>
