<svg width="22" height="22" viewBox="0 0 22 22" fill="none" xmlns="http://www.w3.org/2000/svg">
<g id="credit-card (1) 1" clip-path="url(#clip0_4276_1003)">
<g id="Group">
<g id="Group_2">
<path id="Vector" d="M16.5781 11C13.8642 11 11.6562 13.208 11.6562 15.9219C11.6562 18.6358 13.8642 20.8438 16.5781 20.8438C19.292 20.8438 21.5 18.6358 21.5 15.9219C21.5 13.208 19.292 11 16.5781 11ZM19.474 15.1264L16.3979 18.2025C16.2777 18.3227 16.1203 18.3828 15.9629 18.3828C15.8055 18.3828 15.6481 18.3227 15.5279 18.2025L13.6822 16.3568C13.4419 16.1165 13.4419 15.7272 13.6822 15.4869C13.9225 15.2466 14.3119 15.2466 14.5522 15.4869L15.9629 16.8976L18.6041 14.2564C18.8444 14.0161 19.2338 14.0161 19.4741 14.2564C19.7144 14.4967 19.7144 14.8861 19.474 15.1264Z" fill="#B9BDC1"/>
</g>
</g>
<g id="Group_3">
<g id="Group_4">
<path id="Vector_2" d="M17.1934 1.15625H2.3457C1.32794 1.15625 0.5 1.98419 0.5 3.00195V3.61719H19.0391V3.00195C19.0391 1.98419 18.2111 1.15625 17.1934 1.15625Z" fill="#B9BDC1"/>
</g>
</g>
<g id="Group_5">
<g id="Group_6">
<path id="Vector_3" d="M19.0391 4.84766H0.5V6.07812H19.0391V4.84766Z" fill="#B9BDC1"/>
</g>
</g>
<g id="Group_7">
<g id="Group_8">
<path id="Vector_4" d="M0.5 7.30859V14.0762C0.5 15.0939 1.32794 15.9219 2.3457 15.9219H10.4258C10.4258 12.5297 13.1859 9.76953 16.5781 9.76953C17.454 9.76953 18.284 9.9596 19.0391 10.291V7.30859H0.5ZM7.34961 13.4609H3.57617C3.23611 13.4609 2.96094 13.1858 2.96094 12.8457C2.96094 12.5056 3.23611 12.2305 3.57617 12.2305H7.34961C7.68967 12.2305 7.96484 12.5056 7.96484 12.8457C7.96484 13.1858 7.68967 13.4609 7.34961 13.4609ZM7.34961 11H3.57617C3.23611 11 2.96094 10.7248 2.96094 10.3848C2.96094 10.0447 3.23611 9.76953 3.57617 9.76953H7.34961C7.68967 9.76953 7.96484 10.0447 7.96484 10.3848C7.96484 10.7248 7.68967 11 7.34961 11Z" fill="#B9BDC1"/>
</g>
</g>
</g>
<defs>
<clipPath id="clip0_4276_1003">
<rect width="21" height="21" fill="white" transform="translate(0.5 0.5)"/>
</clipPath>
</defs>
</svg>
