<svg width="42" height="42" viewBox="0 0 42 42" fill="none" xmlns="http://www.w3.org/2000/svg">
<rect width="42" height="42" rx="21" fill="#FFF5C2"/>
<path fill-rule="evenodd" clip-rule="evenodd" d="M16.4082 21.7315C16.407 21.5979 16.3531 21.4702 16.2582 21.3761C16.1633 21.2821 16.0351 21.2293 15.9015 21.2293C15.7679 21.2293 15.6397 21.2821 15.5448 21.3761C15.4499 21.4702 15.396 21.5979 15.3948 21.7315V24.2748C15.3942 24.3417 15.4068 24.4081 15.432 24.4701C15.4572 24.5321 15.4944 24.5885 15.5416 24.636C15.5887 24.6836 15.6447 24.7213 15.7065 24.7471C15.7683 24.7728 15.8346 24.7861 15.9015 24.7861C15.9684 24.7861 16.0347 24.7728 16.0965 24.7471C16.1582 24.7213 16.2143 24.6836 16.2614 24.636C16.3085 24.5885 16.3458 24.5321 16.371 24.4701C16.3962 24.4081 16.4088 24.3417 16.4082 24.2748V21.7315ZM11.3681 17.024H15.3948V19.603C15.3942 19.6699 15.4068 19.7363 15.432 19.7983C15.4572 19.8603 15.4944 19.9167 15.5416 19.9643C15.5887 20.0118 15.6447 20.0496 15.7065 20.0753C15.7683 20.1011 15.8346 20.1143 15.9015 20.1143C15.9684 20.1143 16.0347 20.1011 16.0965 20.0753C16.1582 20.0496 16.2143 20.0118 16.2614 19.9643C16.3085 19.9167 16.3458 19.8603 16.371 19.7983C16.3962 19.7363 16.4088 19.6699 16.4082 19.603V17.024H30.6011C30.8311 17.0241 31.0516 17.1155 31.2142 17.2781C31.3768 17.4407 31.4682 17.6612 31.4683 17.8911V20.0796L31.3247 20.1379C30.7544 20.3692 30.266 20.7654 29.9221 21.2759C29.5782 21.7864 29.3946 22.3879 29.3946 23.0034C29.3946 23.6188 29.5782 24.2203 29.9221 24.7308C30.266 25.2413 30.7544 25.6375 31.3247 25.8688L31.4683 25.9271V28.1154C31.4682 28.3453 31.3768 28.5658 31.2142 28.7285C31.0516 28.8911 30.8311 28.9825 30.6011 28.9827H16.4082V26.4033C16.4088 26.3364 16.3962 26.27 16.371 26.208C16.3458 26.146 16.3085 26.0896 16.2614 26.0421C16.2143 25.9945 16.1582 25.9568 16.0965 25.931C16.0347 25.9053 15.9684 25.892 15.9015 25.892C15.8346 25.892 15.7683 25.9053 15.7065 25.931C15.6447 25.9568 15.5887 25.9945 15.5416 26.0421C15.4944 26.0896 15.4572 26.146 15.432 26.208C15.4068 26.27 15.3942 26.3364 15.3948 26.4033V28.9826H11.367C11.1371 28.9824 10.9167 28.8909 10.7541 28.7283C10.5916 28.5657 10.5002 28.3452 10.5 28.1153V25.927L10.6436 25.8687C11.2131 25.6362 11.7007 25.2397 12.0443 24.7294C12.388 24.2192 12.5721 23.6183 12.5735 23.0032C12.5721 22.388 12.3879 21.7872 12.0442 21.277C11.7006 20.7668 11.2131 20.3703 10.6436 20.1379L10.5 20.0795V17.8911C10.5002 17.6618 10.5911 17.4418 10.753 17.2793C10.9149 17.1168 11.1345 17.025 11.3639 17.024L11.3681 17.024ZM29.6592 10.5493C29.8759 10.4731 30.114 10.4856 30.3215 10.5843C30.529 10.6829 30.689 10.8596 30.7666 11.0759L31.5 13.1374L31.3842 13.2405C31.0327 13.5557 30.7574 13.9467 30.5792 14.384C30.4011 14.8212 30.3246 15.2932 30.3557 15.7643L30.3723 16.0104H14.3041L29.6592 10.5493Z" fill="url(#paint0_linear_4276_972)"/>
<defs>
<linearGradient id="paint0_linear_4276_972" x1="21.6595" y1="30.0298" x2="15.7355" y2="14.6433" gradientUnits="userSpaceOnUse">
<stop stop-color="#F68E1E"/>
<stop offset="1" stop-color="#FFC909"/>
</linearGradient>
</defs>
</svg>
