<svg width="43" height="42" viewBox="0 0 43 42" fill="none" xmlns="http://www.w3.org/2000/svg">
<rect x="0.666504" width="42" height="42" rx="21" fill="#F4F5F6"/>
<path d="M30.854 17.475H12.479V23.4249C12.479 24.3023 13.1914 25.0163 14.0671 25.0163H17.0911C17.0911 25.0163 17.0911 25.0153 17.0911 25.015C17.0924 24.9963 17.0954 24.9779 17.097 24.9592C17.1046 24.8712 17.1134 24.7836 17.1259 24.6967C17.1312 24.6599 17.139 24.6235 17.1449 24.5871C17.1564 24.5192 17.1676 24.4509 17.182 24.384C17.1909 24.3426 17.202 24.3023 17.2122 24.2613C17.2273 24.1999 17.2421 24.1382 17.2595 24.0775C17.2719 24.0349 17.2864 23.9929 17.2998 23.9502C17.3182 23.8924 17.3369 23.8347 17.3576 23.7779C17.373 23.7353 17.3904 23.6933 17.4071 23.6509C17.4291 23.5958 17.4511 23.5407 17.4754 23.4866C17.4941 23.4446 17.5141 23.4032 17.5338 23.3619C17.559 23.309 17.585 23.2565 17.6125 23.2047C17.6342 23.1637 17.6568 23.1233 17.6795 23.083C17.708 23.0324 17.7375 22.9822 17.7681 22.933C17.7927 22.8933 17.8179 22.8539 17.8435 22.8149C17.8753 22.7666 17.9082 22.7194 17.9416 22.6725C17.9689 22.6344 17.9964 22.5964 18.025 22.5593C18.0601 22.5133 18.0962 22.4684 18.1329 22.4238C18.1625 22.3877 18.1923 22.3519 18.2232 22.3168C18.2619 22.2728 18.3016 22.2298 18.3419 22.1872C18.3734 22.1537 18.4049 22.1202 18.4374 22.0878C18.4798 22.0458 18.5234 22.0054 18.567 21.9647C18.6005 21.9339 18.6333 21.9027 18.6678 21.8732C18.7137 21.8331 18.7616 21.7954 18.8092 21.757C18.844 21.7294 18.8778 21.7009 18.9132 21.6743C18.9641 21.6359 19.0172 21.5998 19.0697 21.5634C19.1042 21.5398 19.138 21.5149 19.1731 21.4919C19.2331 21.4528 19.2951 21.4167 19.3572 21.3806C19.387 21.3633 19.4159 21.3442 19.4464 21.3275C19.5399 21.2756 19.6354 21.2268 19.7335 21.1815C20.1115 21.0046 20.5187 20.8809 20.9427 20.8136C21.133 20.7838 21.3397 20.7648 21.5569 20.7572H21.6665C22.1147 20.7572 22.5531 20.8189 22.9695 20.941C23.3514 21.0568 23.7222 21.2238 24.0749 21.4381C24.5707 21.7485 25.0108 22.1521 25.3517 22.6082C25.796 23.2139 26.0798 23.8895 26.1973 24.6192C26.2176 24.7429 26.2314 24.868 26.2409 24.9956C26.2412 25.0025 26.2429 25.0091 26.2432 25.0159H29.2662C30.142 25.0159 30.8543 24.3023 30.8543 23.4245L30.854 17.475ZM14.2699 18.2795H14.8668C15.0482 18.2795 15.1949 18.4265 15.1949 18.6077C15.1949 18.7888 15.0482 18.9358 14.8668 18.9358H14.2699C14.0885 18.9358 13.9418 18.7888 13.9418 18.6077C13.9418 18.4265 14.0885 18.2795 14.2699 18.2795ZM18.5795 20.3539H14.2706C14.0891 20.3539 13.9424 20.2069 13.9424 20.0258C13.9424 19.8447 14.0891 19.6977 14.2706 19.6977H18.5795C18.761 19.6977 18.9076 19.8447 18.9076 20.0258C18.9076 20.2069 18.761 20.3539 18.5795 20.3539ZM20.5962 18.9358H16.425C16.2436 18.9358 16.0969 18.7888 16.0969 18.6077C16.0969 18.4265 16.2436 18.2795 16.425 18.2795H20.5962C20.7776 18.2795 20.9243 18.4265 20.9243 18.6077C20.9243 18.7888 20.7776 18.9358 20.5962 18.9358Z" fill="#B9BDC1"/>
<path d="M21.6663 29.2753C22.9798 29.2753 24.2014 28.622 24.9341 27.5277C25.1267 27.2403 25.2803 26.9276 25.3912 26.5981C25.5283 26.1942 25.5976 25.7722 25.5976 25.3444C25.5976 25.1261 25.5818 24.9237 25.5493 24.7245C25.4483 24.0975 25.2045 23.517 24.8242 22.9986C24.5331 22.6094 24.1545 22.2619 23.7305 21.9965C23.4283 21.8131 23.1081 21.6687 22.7819 21.5696C22.4285 21.4659 22.0522 21.4131 21.6666 21.4131H21.5682C21.3887 21.4193 21.2089 21.4357 21.0451 21.4616C20.6822 21.5191 20.3341 21.6251 20.0109 21.776C18.6282 22.4175 17.7354 23.8179 17.7354 25.344C17.7354 25.8608 17.8374 26.3684 18.0385 26.8524C18.176 27.1835 18.3512 27.4837 18.5599 27.7449C19.3117 28.7188 20.4427 29.2753 21.6663 29.2753ZM22.2654 25.6728H21.0678C20.5438 25.6728 20.1175 25.2462 20.1175 24.7222V24.3767C20.1175 23.8527 20.5441 23.4261 21.0678 23.4261H21.3378V23.1394C21.3378 22.9582 21.4845 22.8112 21.666 22.8112C21.8474 22.8112 21.9941 22.9582 21.9941 23.1394V23.4261H22.2654C22.7895 23.4261 23.2157 23.8527 23.2157 24.3767C23.2157 24.5578 23.069 24.7048 22.8876 24.7048C22.7061 24.7048 22.5594 24.5578 22.5594 24.3767C22.5594 24.2143 22.4275 24.0824 22.2654 24.0824H21.6738C21.6709 24.0824 21.6686 24.084 21.666 24.084C21.6633 24.084 21.6607 24.0824 21.6581 24.0824H21.0678C20.9057 24.0824 20.7738 24.2143 20.7738 24.3767V24.7222C20.7738 24.8846 20.9057 25.0166 21.0678 25.0166H22.2654C22.7895 25.0166 23.2157 25.4428 23.2157 25.9668V26.3123C23.2157 26.8363 22.7891 27.2629 22.2654 27.2629H21.9941V27.553C21.9941 27.7341 21.8474 27.8811 21.666 27.8811C21.4845 27.8811 21.3378 27.7341 21.3378 27.553V27.2629H21.0678C20.5438 27.2629 20.1175 26.8363 20.1175 26.3123C20.1175 26.1312 20.2642 25.9842 20.4457 25.9842C20.6271 25.9842 20.7738 26.1312 20.7738 26.3123C20.7738 26.4747 20.9057 26.6066 21.0678 26.6066H22.2654C22.4275 26.6066 22.5594 26.4747 22.5594 26.3123V25.9668C22.5594 25.8047 22.4275 25.6728 22.2654 25.6728Z" fill="#B9BDC1"/>
<path d="M30.854 14.3161C30.854 13.4387 30.1416 12.7247 29.2659 12.7247H14.0671C13.1914 12.7247 12.479 13.4387 12.479 14.3161V14.3293H30.854V14.3161Z" fill="#B9BDC1"/>
<path d="M12.479 14.9855H30.854V16.8187H12.479V14.9855Z" fill="#B9BDC1"/>
</svg>
