<svg width="25" height="24" viewBox="0 0 25 24" fill="none" xmlns="http://www.w3.org/2000/svg">
<g id="Icon">
<path id="Vector" d="M8.16027 15.96C7.40027 15.2 6.68027 14.4 6.07027 13.51C4.52027 11.28 3.53027 8.80004 3.53027 6.03004C3.53027 5.30004 3.82027 4.61004 4.33027 4.09004C4.91027 3.51004 6.05027 3.04004 6.87027 3.04004H7.59027C8.21027 3.04004 8.77027 3.38004 9.07027 3.92004L11.0203 7.54004C11.2603 7.99004 11.2703 8.53004 11.0403 8.98004L10.7503 9.56004C10.6503 9.76004 10.5203 9.94004 10.3703 10.09L9.88027 10.58C9.68027 10.78 9.62027 11.09 9.74027 11.35C9.96027 11.81 10.4003 12.56 11.1603 13.32C11.9203 14.08 12.6703 14.51 13.1303 14.74C13.3903 14.87 13.7003 14.81 13.9003 14.6L14.3903 14.11C14.5503 13.95 14.7203 13.83 14.9203 13.73L15.5003 13.44C15.9603 13.21 16.4903 13.22 16.9403 13.46L20.5603 15.41C21.1003 15.7 21.4403 16.27 21.4403 16.89V17.61C21.4403 18.43 20.9703 19.57 20.3903 20.15C19.8803 20.66 19.1803 20.95 18.4503 20.95C15.6903 20.95 13.2003 19.95 10.9703 18.41C10.0903 17.8 9.28027 17.08 8.53027 16.32L8.16027 15.96Z" fill="url(#paint0_linear_4276_8072)"/>
</g>
<defs>
<linearGradient id="paint0_linear_4276_8072" x1="13.0477" y1="21.9646" x2="6.76157" y2="7.59474" gradientUnits="userSpaceOnUse">
<stop stop-color="#F68E1E"/>
<stop offset="1" stop-color="#FFC909"/>
</linearGradient>
</defs>
</svg>
