<svg width="24" height="24" viewBox="0 0 24 24" fill="none" xmlns="http://www.w3.org/2000/svg">
<path d="M12.0001 4.65002C7.22008 4.65002 3.33008 8.54002 3.33008 13.32C3.33008 18.1 7.22008 22 12.0001 22C16.7801 22 20.6701 18.11 20.6701 13.33C20.6701 8.55002 16.7801 4.65002 12.0001 4.65002ZM12.7501 13C12.7501 13.41 12.4101 13.75 12.0001 13.75C11.5901 13.75 11.2501 13.41 11.2501 13L11.2501 8.00002C11.2501 7.59002 11.5901 7.25002 12.0001 7.25002C12.4101 7.25002 12.7501 7.59002 12.7501 8.00002L12.7501 13Z" fill="url(#paint0_linear_3972_2008)"/>
<path d="M14.8901 3.45L9.11014 3.45C8.71014 3.45 8.39014 3.13 8.39014 2.73C8.39014 2.33 8.71014 2 9.11014 2L14.8901 2C15.2901 2 15.6101 2.32 15.6101 2.72C15.6101 3.12 15.2901 3.45 14.8901 3.45Z" fill="url(#paint1_linear_3972_2008)"/>
<defs>
<linearGradient id="paint0_linear_3972_2008" x1="12.5446" y1="22.9829" x2="6.45265" y2="9.06489" gradientUnits="userSpaceOnUse">
<stop stop-color="#F68E1E"/>
<stop offset="1" stop-color="#FFC909"/>
</linearGradient>
<linearGradient id="paint1_linear_3972_2008" x1="12.2269" y1="3.53214" x2="12.106" y2="2.15673" gradientUnits="userSpaceOnUse">
<stop stop-color="#F68E1E"/>
<stop offset="1" stop-color="#FFC909"/>
</linearGradient>
</defs>
</svg>
