<svg width="18" height="18" viewBox="0 0 18 18" fill="none" xmlns="http://www.w3.org/2000/svg">
<g id="vuesax/bold/user">
<g id="user">
<path id="Vector" d="M9 9C11.0711 9 12.75 7.32107 12.75 5.25C12.75 3.17893 11.0711 1.5 9 1.5C6.92893 1.5 5.25 3.17893 5.25 5.25C5.25 7.32107 6.92893 9 9 9Z" fill="url(#paint0_linear_4276_5173)"/>
<path id="Vector_2" d="M9.00012 10.875C5.24262 10.875 2.18262 13.395 2.18262 16.5C2.18262 16.71 2.34762 16.875 2.55762 16.875H15.4426C15.6526 16.875 15.8176 16.71 15.8176 16.5C15.8176 13.395 12.7576 10.875 9.00012 10.875Z" fill="url(#paint1_linear_4276_5173)"/>
</g>
</g>
<defs>
<linearGradient id="paint0_linear_4276_5173" x1="9.23553" y1="9.42488" x2="6.60314" y2="3.40733" gradientUnits="userSpaceOnUse">
<stop stop-color="#F68E1E"/>
<stop offset="1" stop-color="#FFC909"/>
</linearGradient>
<linearGradient id="paint1_linear_4276_5173" x1="9.42831" y1="17.2149" x2="8.36373" y2="11.6846" gradientUnits="userSpaceOnUse">
<stop stop-color="#F68E1E"/>
<stop offset="1" stop-color="#FFC909"/>
</linearGradient>
</defs>
</svg>
